<svg width="66" height="17" viewBox="0 0 66 17" fill="none" xmlns="http://www.w3.org/2000/svg">
<path d="M52.4385 4.39514C52.4381 4.40968 52.4424 4.4239 52.4509 4.43568C52.4593 4.44746 52.4714 4.45618 52.4853 4.46054C52.4993 4.4649 52.5144 4.46467 52.5283 4.45988C52.5423 4.4551 52.5544 4.44601 52.5628 4.43397C54.7828 1.15118 59.0468 0.734358 62.6313 0.935002C63.4727 0.981603 64.9419 0.828855 65.4467 1.6858C65.6564 2.04049 65.1063 3.2094 64.9665 3.6068C64.7361 4.25792 64.4448 4.09094 63.9089 4.09094C62.4319 4.08964 60.9575 4.08835 59.4831 4.08705C58.0475 4.08446 56.7647 4.73817 56.3492 6.18022C55.5828 8.83519 54.8152 11.4902 54.045 14.1451C53.8042 14.9749 53.7822 16.3509 52.6327 16.3548C51.5143 16.3587 50.1383 16.4894 49.0522 16.2707C49.0339 16.2669 49.0171 16.2576 49.0042 16.244C48.9912 16.2303 48.9827 16.213 48.9797 16.1943C48.9422 15.9445 48.937 15.7723 48.9655 15.6778C49.8354 12.7665 50.6742 9.8643 51.4832 6.96856C51.4876 6.95308 51.4863 6.93665 51.4796 6.92212C51.473 6.90759 51.4614 6.89586 51.4468 6.88895C51.4322 6.88205 51.4156 6.8804 51.3998 6.8843C51.384 6.8882 51.37 6.8974 51.3602 6.91031C50.1175 8.65656 47.2826 9.49926 45.2749 9.76463C42.6329 10.1128 39.9909 10.4559 37.3475 10.7937C37.178 10.8157 37.042 10.8507 36.9372 10.8999C36.8919 10.9219 36.8699 10.9581 36.8725 11.0086C36.9682 12.6759 38.0038 13.107 39.5494 13.2753C42.2407 13.5665 45.0937 13.2882 47.8004 13.1717C48.0231 13.1626 48.2354 13.1678 48.436 13.1898C48.4502 13.1914 48.4639 13.196 48.4761 13.2033C48.4884 13.2107 48.4989 13.2206 48.5069 13.2325C48.5149 13.2443 48.5202 13.2577 48.5225 13.2718C48.5248 13.2859 48.524 13.3003 48.5202 13.3141C48.3234 14.0092 48.1163 14.6914 47.9001 15.3581C47.658 16.1024 46.1487 16.2111 45.3642 16.2603C43.4704 16.3768 41.574 16.4105 39.6763 16.3613C37.3359 16.3017 34.822 15.8681 33.2686 13.9044C33.1172 13.7128 33.0317 13.7387 33.0149 13.9833C32.9476 14.9037 32.7521 15.8189 31.6907 16.0286C31.0797 16.149 30.4648 16.2344 29.8473 16.2823C26.4027 16.5542 19.7698 17.0111 18.8857 12.4222C18.8262 12.1154 18.777 11.8086 18.7394 11.5018C18.7382 11.4926 18.7338 11.484 18.7271 11.4775C18.7204 11.4711 18.7117 11.4671 18.7024 11.4662C18.6931 11.4653 18.6838 11.4675 18.6759 11.4726C18.6681 11.4777 18.6622 11.4852 18.6592 11.494C18.4974 11.9847 18.421 12.496 18.2514 12.9607C18.0857 13.4176 17.933 13.8798 17.7932 14.3445C17.4191 15.5872 16.5142 15.7814 15.3816 15.9237C11.9175 16.3626 7.62375 16.7056 3.88012 15.9004C2.0109 15.4992 0.447168 14.3717 0.847162 12.2643C1.49569 8.85591 5.56424 7.89023 8.44186 7.48376C10.7603 7.15626 13.0748 6.80804 15.3854 6.43912C15.7906 6.37439 16.1427 6.15951 16.2437 5.77505C16.7951 3.67023 13.8165 3.6767 12.5894 3.678C10.3409 3.68188 8.62826 3.75826 7.45158 3.90971C6.62441 4.01586 5.81666 4.0767 5.02962 4.09223C5.00799 4.09266 4.98656 4.08811 4.96697 4.07893C4.94738 4.06975 4.93017 4.05619 4.91665 4.0393C4.90314 4.02241 4.89369 4.00264 4.88904 3.98152C4.88438 3.96039 4.88465 3.93848 4.88981 3.91748C5.00114 3.45535 5.13447 2.9984 5.28851 2.54533C5.76747 1.13435 7.1901 1.10846 8.55318 1.03338C11.3997 0.87675 14.6139 0.672223 17.388 1.32723C19.3918 1.79971 20.94 3.18221 20.5284 5.41001C20.525 5.42733 20.5278 5.44529 20.5361 5.46082C20.5445 5.47636 20.558 5.48851 20.5743 5.49522C20.5906 5.50194 20.6088 5.50279 20.6257 5.49764C20.6425 5.49249 20.6571 5.48165 20.6669 5.46697C23.3866 1.42949 28.3393 0.58161 32.9191 0.981603C33.7903 1.05798 34.7922 1.01655 35.09 2.08191C35.2544 2.6696 35.3256 3.27024 35.3036 3.88511C35.3023 3.92654 35.2828 3.95631 35.244 3.97314C35.0537 4.05728 34.9243 4.09741 34.8544 4.09223C32.589 3.91748 30.681 3.75437 28.8325 4.04951C25.1367 4.64109 23.551 7.14072 23.1795 10.6902C23.0164 12.2461 23.9808 12.9452 25.3736 13.1833C27.7723 13.595 30.29 13.305 32.7288 13.1109C32.7496 13.1092 32.7696 13.103 32.7876 13.0926C32.8056 13.0821 32.8211 13.0678 32.8329 13.0505C32.8446 13.0333 32.8524 13.0136 32.8557 12.9929C32.859 12.9722 32.8577 12.9511 32.8518 12.9309C32.1619 10.5724 33.2091 7.46175 34.5722 5.42684C37.6828 0.786138 44.3299 0.322714 49.3214 1.33629C50.8968 1.65603 52.4774 2.56475 52.4385 4.39514ZM42.6122 3.71165C39.4226 3.95113 38.5592 5.49286 37.5469 8.20737C37.5405 8.22476 37.5386 8.24352 37.5416 8.26182C37.5446 8.28012 37.5522 8.29734 37.5638 8.3118C37.5754 8.32626 37.5906 8.33748 37.6078 8.34436C37.625 8.35124 37.6437 8.35355 37.6621 8.35106C39.9093 8.0598 42.1578 7.73877 44.4063 7.38797C45.5312 7.21321 46.4762 6.8896 47.2399 6.41841C47.8263 6.05725 48.0762 5.53169 47.9907 4.84303C47.803 3.32461 43.6257 3.63528 42.6122 3.71165ZM5.30793 11.5808C4.76425 13.094 6.75127 13.4979 7.80109 13.5652C9.581 13.6778 11.3609 13.6623 13.1408 13.5186C13.344 13.5018 13.5473 13.4681 13.7505 13.4176C13.7971 13.406 13.8282 13.3762 13.8424 13.3309L15.2016 9.07208C15.2041 9.0644 15.2046 9.05622 15.203 9.0483C15.2015 9.04038 15.198 9.03298 15.1928 9.02678C15.1876 9.02059 15.181 9.01579 15.1735 9.01285C15.166 9.00991 15.1578 9.00891 15.1498 9.00995C12.6619 9.34392 10.1752 9.67919 7.68847 10.0171C6.65677 10.1569 5.66132 10.5957 5.30793 11.5808Z" fill="black"/>
</svg>
