<svg width="70" height="14" viewBox="0 0 70 14" fill="none" xmlns="http://www.w3.org/2000/svg">
<g clip-path="url(#clip0_211_1640)">
<path d="M33.2474 0.0591714H21.3114C18.5433 0.0591714 17.3165 1.69676 17.0338 3.25889V0.0591714H10.408C10.0476 0.0272657 9.68511 0.0923865 9.3615 0.247157C9.04147 0.400373 8.77404 0.637866 8.5908 0.931582L6.77635 3.44555H33.2433L33.2474 0.0591714ZM0.206055 13.2857H4.95774L10.9154 4.18558L6.66546 3.78843L0.206055 13.2857ZM37.8591 0.0618191H33.9446V3.4482H37.8577L37.8591 0.0618191ZM62.7015 5.35321L50.4577 4.66481C50.4577 6.43743 51.6886 7.62491 53.7844 7.78642L62.506 8.42187C63.1769 8.47482 63.5969 8.63368 63.5969 9.16322C63.5969 9.66628 63.1228 9.85029 62.1428 9.85029H50.2636V13.2896H62.3937C66.2236 13.2896 67.9009 12.0187 67.9009 9.13542C67.9009 6.54201 66.39 5.56502 62.7015 5.35321Z" fill="#2D2926"/>
<path d="M50.2975 4.66507L46.4385 4.45325V8.34269C46.4385 9.5593 45.7967 9.92998 43.5595 9.92998H40.4864C38.6415 9.92998 37.8583 9.42692 37.8583 8.34137V4.0839L33.9452 3.81913V8.66041H33.8621C33.6375 7.25847 33.0789 5.61823 29.3613 5.37994L17.1175 4.61211C17.1175 6.38606 18.4579 7.44381 20.5551 7.65562L29.0799 8.47375C29.7522 8.52671 30.2553 8.71204 30.2553 9.24158C30.2553 9.82407 29.7522 9.87702 28.969 9.87702H16.9775V4.58299L13.0645 4.3447V13.2899H28.9981C32.548 13.2899 33.6943 11.5437 33.8635 10.0888H33.9466C34.3943 12.391 36.5179 13.2899 40.1246 13.2899H44.0945C48.3153 13.2899 50.3003 12.0719 50.3003 9.2151L50.2975 4.66507ZM67.6284 3.44846V0.0594293H54.4906C51.7557 0.0594293 50.5221 1.66127 50.3044 3.20884C50.3044 3.22605 50.3003 3.24326 50.2975 3.2618V0.0581055H46.4385V3.44581H67.627L67.6284 3.44846Z" fill="#2D2926"/>
</g>
<defs>
<clipPath id="clip0_211_1640">
<rect width="69.3069" height="13.2384" fill="white" transform="translate(0.206055 0.0512695)"/>
</clipPath>
</defs>
</svg>
