<svg width="71" height="43" viewBox="0 0 71 43" fill="none" xmlns="http://www.w3.org/2000/svg">
<path d="M25.4703 9.10657C26.1475 9.57208 26.0939 10.1884 26.0779 10.8772C26.0773 10.9004 26.0698 10.9228 26.0564 10.9417C26.043 10.9605 26.0242 10.9749 26.0026 10.983C25.9809 10.9911 25.9573 10.9926 25.9348 10.9871C25.9123 10.9817 25.8919 10.9697 25.8763 10.9527L24.0795 9.00215C24.0687 8.99037 24.0611 8.97588 24.0577 8.96019C24.0543 8.9445 24.0552 8.92819 24.0602 8.91294C24.0652 8.8977 24.0742 8.88408 24.0863 8.8735C24.0984 8.86292 24.1131 8.85577 24.1289 8.85278C24.6408 8.75852 25.0874 8.84408 25.4703 9.10657Z" fill="white"/>
<path d="M25.0261 11.0327C25.2349 11.2125 25.5017 11.3923 25.6511 11.6447C25.6613 11.6616 25.6658 11.6814 25.6638 11.7011C25.6619 11.7208 25.6535 11.7393 25.6401 11.7539C25.6267 11.7684 25.6089 11.7782 25.5895 11.7818C25.57 11.7854 25.5499 11.7826 25.5322 11.7737L21.7762 9.95664C21.7499 9.9438 21.7269 9.92491 21.7093 9.90152C21.6916 9.87812 21.6798 9.85088 21.6747 9.82202C21.6696 9.79317 21.6714 9.76351 21.68 9.73549C21.6886 9.70747 21.7036 9.68187 21.724 9.6608L22.4085 8.96326C22.4421 8.92823 22.4881 8.90773 22.5368 8.90611C22.5855 8.90449 22.6331 8.92186 22.6695 8.95456C23.4439 9.655 24.2299 10.3467 25.0261 11.0327Z" fill="white"/>
<path d="M26.7003 12.6324C26.4234 15.7692 22.3817 15.4937 21.8828 12.6339L22.0075 11.4128C22.0235 11.2635 22.1018 11.2127 22.2439 11.2635C23.5491 11.7261 24.8992 12.1829 26.2943 12.6368C26.4306 12.6817 26.5655 12.6803 26.7003 12.6324Z" fill="white"/>
<path d="M21.8829 12.6335C22.3818 15.4933 26.4234 15.7688 26.7004 12.6321L67.5841 12.6306C67.6245 12.6306 67.6633 12.6467 67.6918 12.6752C67.7204 12.7038 67.7364 12.7425 67.7364 12.7829L67.7248 30.6956C67.7248 30.7218 67.7144 30.7469 67.6959 30.7653C67.6774 30.7838 67.6523 30.7942 67.6262 30.7942H5.3957C5.36224 30.7942 5.33015 30.7808 5.30648 30.7568C5.28282 30.7329 5.26953 30.7005 5.26953 30.6666V12.8496C5.26953 12.706 5.34204 12.6335 5.48561 12.6335H21.8829ZM12.5843 25.2328C12.535 26.448 10.7918 26.3784 10.786 25.1385C10.7759 23.0111 10.7759 20.8822 10.7846 18.7533C10.7875 18.005 10.847 17.2654 11.7751 17.3394C12.9077 17.4307 12.5843 18.9607 12.6017 19.7119C12.6031 19.7771 12.635 19.809 12.7003 19.809H14.4434C14.4692 19.8091 14.494 19.7991 14.5127 19.7813C14.5313 19.7635 14.5424 19.7391 14.5435 19.7133C14.616 17.9601 14.6261 16.1198 12.548 15.5629C10.1088 14.9103 8.72243 16.3852 8.71663 18.7577C8.71083 20.8445 8.71808 22.9328 8.73983 25.021C8.74273 25.3285 8.77464 25.6287 8.83555 25.923C9.43737 28.806 14.049 28.7422 14.4739 25.7519C14.571 25.0631 14.5826 24.2263 14.5058 23.2445C14.5029 23.2025 14.4797 23.1807 14.4376 23.1807H12.6713C12.6591 23.1807 12.6471 23.1832 12.6359 23.188C12.6246 23.1928 12.6145 23.1998 12.6061 23.2086C12.5977 23.2174 12.5912 23.2278 12.5869 23.2393C12.5827 23.2507 12.5808 23.2628 12.5814 23.275C12.6104 23.9334 12.6118 24.586 12.5843 25.2328ZM36.5211 25.4329C36.3195 26.2812 34.965 26.3392 34.7852 25.4981C34.7272 25.227 34.7011 24.7353 34.7084 24.0204C34.7086 24.011 34.7069 24.0017 34.7034 23.993C34.6999 23.9843 34.6946 23.9763 34.688 23.9697C34.6813 23.9631 34.6734 23.9578 34.6647 23.9543C34.656 23.9508 34.6467 23.9491 34.6373 23.9493L32.8855 23.9798C32.8347 23.9812 32.8086 24.0059 32.8043 24.0552C32.6172 26.1087 33.1654 27.9214 35.577 27.9939C37.5348 28.0534 38.547 26.9309 38.6065 25.0384C38.6761 22.7486 37.1708 21.703 35.68 20.2166C35.0709 19.6089 34.8215 18.8722 34.9317 18.0079C34.9824 17.612 35.1971 17.393 35.5785 17.3481C36.7778 17.2074 36.6212 18.253 36.6342 19.0288C36.6342 19.0454 36.6408 19.0612 36.6525 19.0729C36.6642 19.0846 36.68 19.0912 36.6966 19.0912L38.4658 19.0854C38.4993 19.0854 38.5315 19.0723 38.5556 19.0487C38.5796 19.0252 38.5937 18.9931 38.5949 18.9592C38.6108 18.4473 38.5702 17.963 38.4701 17.509C38.2207 16.3852 37.5348 15.6717 36.3993 15.4817C32.4403 14.819 31.9835 19.2522 33.992 21.4724C34.9505 22.5325 36.9097 23.7913 36.5211 25.4329ZM62.1445 15.4976C58.7568 14.7972 57.6968 18.3125 59.0962 20.6966C60.0258 22.2787 62.4983 23.2982 62.1909 25.3908C62.0473 26.3683 60.5304 26.3189 60.4565 25.3517C60.4231 24.9311 60.4072 24.4975 60.4086 24.0509C60.4088 24.0418 60.4071 24.0328 60.4037 24.0243C60.4003 24.0159 60.3952 24.0082 60.3887 24.0017C60.3823 23.9952 60.3745 23.9901 60.366 23.9866C60.3574 23.9831 60.3483 23.9812 60.339 23.9812L58.5538 23.9725C58.4973 23.9725 58.4668 24.0001 58.4639 24.0567C58.3725 25.6272 58.564 27.3181 60.339 27.8402C63.831 28.8669 65.1812 25.3647 63.7643 22.8312C62.8246 21.1476 60.0751 20.0266 60.6725 17.8397C60.8582 17.161 61.8965 17.2016 62.1851 17.7193C62.3635 18.0427 62.3417 18.617 62.3345 19.0274C62.333 19.068 62.3533 19.0883 62.3939 19.0883L64.1907 19.0912C64.2197 19.0927 64.2356 19.0782 64.2386 19.0477C64.385 17.4119 63.9369 15.8689 62.1445 15.4976ZM17.8166 20.7517C17.7981 20.7517 17.7804 20.7443 17.7673 20.7313C17.7543 20.7182 17.747 20.7005 17.747 20.6821L17.7383 15.6369C17.7383 15.6277 17.7365 15.6187 17.733 15.6102C17.7295 15.6018 17.7243 15.5941 17.7179 15.5876C17.7114 15.5812 17.7037 15.576 17.6953 15.5725C17.6868 15.569 17.6778 15.5672 17.6686 15.5672H15.7486C15.7301 15.5672 15.7124 15.5746 15.6994 15.5876C15.6863 15.6007 15.679 15.6184 15.679 15.6369L15.7094 27.8315C15.7094 27.8408 15.7113 27.8499 15.7149 27.8585C15.7185 27.867 15.7237 27.8748 15.7303 27.8812C15.737 27.8877 15.7448 27.8928 15.7534 27.8962C15.762 27.8996 15.7712 27.9013 15.7805 27.9011L17.6599 27.875C17.6782 27.8746 17.6955 27.8671 17.7082 27.8541C17.721 27.8411 17.7281 27.8236 17.7281 27.8054L17.7745 22.737C17.7749 22.7188 17.7824 22.7014 17.7954 22.6887C17.8084 22.676 17.8259 22.6688 17.8441 22.6688L19.7018 22.6949C19.72 22.6953 19.7374 22.7028 19.7501 22.7158C19.7628 22.7288 19.77 22.7463 19.77 22.7645L19.7729 27.8242C19.7729 27.8334 19.7747 27.8424 19.7782 27.8509C19.7817 27.8593 19.7868 27.867 19.7933 27.8735C19.7997 27.8799 19.8074 27.8851 19.8158 27.8886C19.8243 27.892 19.8333 27.8939 19.8425 27.8939H21.8046C21.823 27.8939 21.8407 27.8865 21.8538 27.8735C21.8669 27.8604 21.8742 27.8427 21.8742 27.8242V15.6369C21.8742 15.6184 21.8669 15.6007 21.8538 15.5876C21.8407 15.5746 21.823 15.5672 21.8046 15.5672H19.841C19.8226 15.5672 19.8049 15.5746 19.7918 15.5876C19.7788 15.6007 19.7714 15.6184 19.7714 15.6369V20.6821C19.7714 20.7005 19.7641 20.7182 19.751 20.7313C19.738 20.7443 19.7203 20.7517 19.7018 20.7517H17.8166ZM25.2082 15.6064C25.2082 15.6015 25.2072 15.5965 25.2053 15.592C25.2034 15.5874 25.2006 15.5832 25.1971 15.5797C25.1936 15.5762 25.1895 15.5735 25.1849 15.5716C25.1803 15.5697 25.1754 15.5687 25.1705 15.5687H23.1779C23.1679 15.5687 23.1583 15.5727 23.1512 15.5797C23.1442 15.5868 23.1402 15.5964 23.1402 15.6064V27.8547C23.1402 27.8647 23.1442 27.8743 23.1512 27.8814C23.1583 27.8884 23.1679 27.8924 23.1779 27.8924H25.1705C25.1754 27.8924 25.1803 27.8914 25.1849 27.8895C25.1895 27.8876 25.1936 27.8849 25.1971 27.8814C25.2006 27.8779 25.2034 27.8737 25.2053 27.8691C25.2072 27.8645 25.2082 27.8596 25.2082 27.8547V15.6064ZM32.2735 20.028C32.2778 17.8759 32.3388 15.6108 29.4485 15.5745C28.4885 15.5614 27.5212 15.5614 26.5481 15.5716C26.5032 15.573 26.48 15.5963 26.48 15.6412L26.4771 27.8025C26.4771 27.8267 26.4867 27.85 26.5038 27.8671C26.521 27.8842 26.5442 27.8939 26.5685 27.8939H28.4537C28.5146 27.8939 28.5451 27.8634 28.5451 27.8025V23.3939C28.545 23.369 28.5547 23.3451 28.5721 23.3272C28.5894 23.3094 28.613 23.299 28.6379 23.2982C29.0193 23.2852 29.3978 23.2721 29.7719 23.2561C31.734 23.1735 32.2706 21.7291 32.2735 20.028ZM42.7932 17.509C42.7932 17.494 42.7991 17.4797 42.8097 17.4691C42.8203 17.4585 42.8347 17.4525 42.8497 17.4525H44.7306C44.7456 17.4525 44.76 17.4465 44.7706 17.4359C44.7812 17.4253 44.7872 17.4109 44.7872 17.3959V15.6238C44.7872 15.6088 44.7812 15.5944 44.7706 15.5838C44.76 15.5732 44.7456 15.5672 44.7306 15.5672H38.7964C38.7817 15.5672 38.7675 15.573 38.757 15.5833C38.7464 15.5936 38.7403 15.6076 38.7399 15.6224L38.7123 17.3945C38.7121 17.402 38.7135 17.4095 38.7162 17.4166C38.719 17.4236 38.7231 17.43 38.7284 17.4354C38.7336 17.4408 38.7399 17.4451 38.7469 17.4481C38.7539 17.451 38.7613 17.4525 38.7689 17.4525H40.6701C40.6851 17.4525 40.6995 17.4585 40.7101 17.4691C40.7207 17.4797 40.7266 17.494 40.7266 17.509V27.8373C40.7266 27.8523 40.7326 27.8667 40.7432 27.8773C40.7538 27.8879 40.7682 27.8939 40.7832 27.8939H42.7366C42.7516 27.8939 42.766 27.8879 42.7766 27.8773C42.7872 27.8667 42.7932 27.8523 42.7932 27.8373V17.509ZM47.5759 25.9898C47.5563 25.9898 47.5375 25.982 47.5236 25.9681C47.5097 25.9542 47.5019 25.9354 47.5019 25.9158L47.5092 22.6369C47.5092 22.6173 47.517 22.5985 47.5308 22.5846C47.5447 22.5707 47.5635 22.563 47.5831 22.563L50.0427 22.5688C50.0623 22.5688 50.0811 22.561 50.095 22.5471C50.1088 22.5332 50.1166 22.5144 50.1166 22.4948V20.7937C50.1166 20.7744 50.109 20.7558 50.0955 20.7419C50.0819 20.7281 50.0635 20.7201 50.0441 20.7198L47.5889 20.6821C47.5693 20.6821 47.5505 20.6743 47.5366 20.6604C47.5228 20.6465 47.515 20.6277 47.515 20.6081L47.4773 17.5279C47.4771 17.5181 47.4788 17.5083 47.4825 17.4992C47.4861 17.49 47.4915 17.4817 47.4984 17.4747C47.5053 17.4676 47.5135 17.4621 47.5226 17.4583C47.5317 17.4545 47.5414 17.4525 47.5512 17.4525H50.7315C50.7511 17.4525 50.7699 17.4447 50.7838 17.4308C50.7977 17.417 50.8055 17.3981 50.8055 17.3785L50.804 15.6412C50.804 15.6216 50.7962 15.6028 50.7823 15.5889C50.7685 15.575 50.7497 15.5672 50.73 15.5672H45.5137C45.4941 15.5672 45.4753 15.575 45.4614 15.5889C45.4475 15.6028 45.4398 15.6216 45.4398 15.6412V27.7996C45.4398 27.8192 45.4475 27.838 45.4614 27.8519C45.4753 27.8658 45.4941 27.8735 45.5137 27.8735L50.7315 27.8953C50.7511 27.8953 50.7699 27.8875 50.7838 27.8736C50.7977 27.8598 50.8055 27.841 50.8055 27.8213V26.0913C50.8055 26.0717 50.7977 26.0528 50.7838 26.039C50.7699 26.0251 50.7511 26.0173 50.7315 26.0173L47.5759 25.9898ZM56.7077 21.7958C57.2066 21.455 57.5111 21.0345 57.6228 20.5312C57.8505 19.5045 57.8693 17.7396 57.4285 16.8449C57.0239 16.0255 56.2567 15.6093 55.1241 15.5948C53.5405 15.573 52.5007 15.5629 52.0048 15.5629C51.954 15.5643 51.9293 15.589 51.9293 15.6398V27.8213C51.9293 27.8692 51.954 27.8939 52.0019 27.8939H53.8871C53.935 27.8939 53.9596 27.8692 53.9596 27.8213V23.0415C53.9596 23.0082 53.9756 22.9879 54.0075 22.9806C55.462 22.6224 55.7216 23.5012 55.6955 24.6918C55.6723 25.7186 55.7172 26.7381 55.8318 27.7488C55.8357 27.7836 55.8521 27.8157 55.878 27.8392C55.9039 27.8627 55.9375 27.876 55.9725 27.8764L57.907 27.9011C57.9665 27.9026 57.9882 27.8735 57.9752 27.8155C57.7069 26.7395 57.7896 25.9201 57.762 24.9137C57.7229 23.4969 57.7838 22.6384 56.7077 21.8872C56.6628 21.8567 56.6628 21.8263 56.7077 21.7958ZM58.6988 15.634L57.7664 15.4933C57.757 15.492 57.7474 15.4945 57.7398 15.5002C57.7322 15.5059 57.7272 15.5144 57.7258 15.5237L57.7229 15.5426C57.6708 15.8867 57.6614 16.2229 57.6968 16.4774C57.7321 16.7319 57.8093 16.8839 57.9114 16.9L58.1449 16.9348C58.2472 16.9496 58.3658 16.8272 58.4749 16.5944C58.5839 16.3617 58.6744 16.0376 58.7264 15.6934L58.7293 15.6746C58.7305 15.6652 58.728 15.6556 58.7223 15.648C58.7167 15.6404 58.7082 15.6354 58.6988 15.634Z" fill="black"/>
<path d="M10.7862 25.1389C10.792 26.3788 12.5351 26.4485 12.5844 25.2332C12.612 24.5864 12.6105 23.9338 12.5815 23.2754C12.5809 23.2633 12.5828 23.2511 12.5871 23.2397C12.5913 23.2283 12.5979 23.2179 12.6063 23.209C12.6147 23.2002 12.6248 23.1932 12.636 23.1884C12.6472 23.1836 12.6592 23.1812 12.6714 23.1812H14.4378C14.4798 23.1812 14.503 23.2029 14.5059 23.245C14.5828 24.2268 14.5712 25.0635 14.474 25.7524C14.0491 28.7427 9.43751 28.8065 8.83568 25.9235C8.77477 25.6291 8.74287 25.3289 8.73996 25.0215C8.71821 22.9332 8.71096 20.8449 8.71676 18.7581C8.72256 16.3856 10.1089 14.9108 12.5482 15.5633C14.6263 16.1202 14.6161 17.9605 14.5436 19.7138C14.5425 19.7396 14.5315 19.7639 14.5128 19.7817C14.4942 19.7996 14.4694 19.8095 14.4436 19.8095H12.7004C12.6352 19.8095 12.6033 19.7776 12.6018 19.7123C12.5844 18.9611 12.9078 17.4312 11.7752 17.3398C10.8471 17.2659 10.7876 18.0055 10.7847 18.7538C10.776 20.8826 10.776 23.0115 10.7862 25.1389Z" fill="white"/>
<path d="M34.7842 25.4985C34.964 26.3397 36.3185 26.2816 36.52 25.4333C36.9087 23.7917 34.9495 22.5329 33.9909 21.4728C31.9824 19.2526 32.4392 14.8194 36.3982 15.4821C37.5337 15.6721 38.2196 16.3856 38.4691 17.5095C38.5691 17.9634 38.6097 18.4477 38.5938 18.9596C38.5927 18.9935 38.5786 19.0256 38.5545 19.0491C38.5304 19.0727 38.4982 19.0858 38.4647 19.0858L36.6955 19.0916C36.679 19.0916 36.6631 19.085 36.6514 19.0733C36.6397 19.0617 36.6331 19.0458 36.6331 19.0293C36.6201 18.2534 36.7767 17.2078 35.5774 17.3485C35.196 17.3934 34.9814 17.6124 34.9306 18.0083C34.8204 18.8726 35.0698 19.6093 35.6789 20.217C37.1697 21.7034 38.675 22.749 38.6054 25.0388C38.5459 26.9313 37.5337 28.0538 35.576 27.9943C33.1643 27.9218 32.6161 26.1091 32.8032 24.0556C32.8075 24.0063 32.8336 23.9816 32.8844 23.9802L34.6362 23.9497C34.6456 23.9495 34.6549 23.9512 34.6637 23.9547C34.6724 23.9582 34.6803 23.9635 34.6869 23.9701C34.6936 23.9768 34.6988 23.9847 34.7023 23.9934C34.7058 24.0021 34.7075 24.0114 34.7073 24.0208C34.7 24.7357 34.7261 25.2274 34.7842 25.4985Z" fill="white"/>
<path d="M59.0961 20.697C57.6966 18.3129 58.7567 14.7977 62.1444 15.4981C63.9368 15.8693 64.3849 17.4123 64.2384 19.0482C64.2355 19.0786 64.2196 19.0931 64.1906 19.0917L62.3938 19.0888C62.3532 19.0888 62.3329 19.0685 62.3343 19.0279C62.3416 18.6174 62.3633 18.0432 62.185 17.7198C61.8964 17.2021 60.858 17.1615 60.6724 17.8401C60.0749 20.027 62.8245 21.148 63.7642 22.8317C65.181 25.3652 63.8309 28.8674 60.3389 27.8406C58.5638 27.3186 58.3724 25.6277 58.4638 24.0571C58.4667 24.0005 58.4971 23.973 58.5537 23.973L60.3389 23.9817C60.3481 23.9817 60.3573 23.9835 60.3658 23.987C60.3744 23.9905 60.3821 23.9957 60.3886 24.0022C60.3951 24.0087 60.4002 24.0163 60.4036 24.0248C60.407 24.0332 60.4087 24.0422 60.4085 24.0513C60.407 24.498 60.423 24.9316 60.4563 25.3521C60.5303 26.3194 62.0472 26.3687 62.1908 25.3913C62.4982 23.2987 60.0256 22.2792 59.0961 20.697Z" fill="white"/>
<path d="M17.8163 20.7518H19.7015C19.72 20.7518 19.7377 20.7445 19.7508 20.7314C19.7638 20.7184 19.7711 20.7007 19.7711 20.6822V15.637C19.7711 15.6185 19.7785 15.6008 19.7915 15.5878C19.8046 15.5747 19.8223 15.5674 19.8408 15.5674H21.8043C21.8228 15.5674 21.8405 15.5747 21.8535 15.5878C21.8666 15.6008 21.8739 15.6185 21.8739 15.637V27.8244C21.8739 27.8428 21.8666 27.8605 21.8535 27.8736C21.8405 27.8867 21.8228 27.894 21.8043 27.894H19.8422C19.8331 27.894 19.824 27.8922 19.8156 27.8887C19.8071 27.8852 19.7994 27.8801 19.793 27.8736C19.7865 27.8671 19.7814 27.8595 19.7779 27.851C19.7744 27.8426 19.7726 27.8335 19.7726 27.8244L19.7697 22.7647C19.7697 22.7465 19.7626 22.729 19.7498 22.716C19.7371 22.7029 19.7197 22.6954 19.7015 22.6951L17.8438 22.669C17.8256 22.669 17.8081 22.6761 17.7951 22.6888C17.7821 22.7016 17.7746 22.7189 17.7742 22.7371L17.7278 27.8055C17.7278 27.8237 17.7207 27.8412 17.708 27.8542C17.6952 27.8673 17.6779 27.8748 17.6597 27.8751L15.7802 27.9012C15.771 27.9014 15.7618 27.8998 15.7531 27.8964C15.7445 27.893 15.7367 27.8879 15.7301 27.8814C15.7234 27.8749 15.7182 27.8671 15.7146 27.8586C15.711 27.8501 15.7092 27.8409 15.7092 27.8316L15.6787 15.637C15.6787 15.6185 15.686 15.6008 15.6991 15.5878C15.7122 15.5747 15.7299 15.5674 15.7483 15.5674H17.6684C17.6775 15.5674 17.6866 15.5692 17.695 15.5727C17.7035 15.5762 17.7111 15.5813 17.7176 15.5878C17.7241 15.5942 17.7292 15.6019 17.7327 15.6104C17.7362 15.6188 17.738 15.6279 17.738 15.637L17.7467 20.6822C17.7467 20.7007 17.754 20.7184 17.7671 20.7314C17.7801 20.7445 17.7978 20.7518 17.8163 20.7518Z" fill="white"/>
<path d="M25.1699 15.5688H23.1774C23.1565 15.5688 23.1396 15.5857 23.1396 15.6066V27.8548C23.1396 27.8757 23.1565 27.8926 23.1774 27.8926H25.1699C25.1907 27.8926 25.2076 27.8757 25.2076 27.8548V15.6066C25.2076 15.5857 25.1907 15.5688 25.1699 15.5688Z" fill="white"/>
<path d="M29.448 15.5749C32.3382 15.6111 32.2773 17.8763 32.273 20.0284C32.2701 21.7295 31.7335 23.1739 29.7714 23.2565C29.3972 23.2725 29.0187 23.2855 28.6373 23.2986C28.6125 23.2993 28.5889 23.3098 28.5715 23.3276C28.5542 23.3455 28.5445 23.3694 28.5445 23.3943V27.8029C28.5445 27.8638 28.5141 27.8942 28.4532 27.8942H26.5679C26.5437 27.8942 26.5205 27.8846 26.5033 27.8675C26.4862 27.8503 26.4766 27.8271 26.4766 27.8029L26.4795 15.6416C26.4795 15.5966 26.5027 15.5734 26.5476 15.572C27.5207 15.5618 28.488 15.5618 29.448 15.5749ZM28.5358 17.5486L28.5503 21.3278C28.5503 21.3505 28.5593 21.3722 28.5754 21.3883C28.5914 21.4043 28.6132 21.4133 28.6359 21.4133L29.4001 21.4104C29.5083 21.4101 29.6154 21.3877 29.7152 21.3446C29.815 21.3014 29.9056 21.2384 29.9818 21.1591C30.058 21.0798 30.1183 20.9857 30.1594 20.8823C30.2004 20.7789 30.2213 20.6681 30.2209 20.5563L30.2122 18.3085C30.2115 18.0827 30.1239 17.8665 29.9689 17.7074C29.8139 17.5483 29.6041 17.4594 29.3856 17.4601L28.6214 17.463C28.5987 17.463 28.5769 17.472 28.5609 17.4881C28.5448 17.5041 28.5358 17.5259 28.5358 17.5486Z" fill="white"/>
<path d="M42.7928 17.5092V27.8374C42.7928 27.8524 42.7868 27.8668 42.7762 27.8774C42.7656 27.888 42.7512 27.894 42.7362 27.894H40.7828C40.7678 27.894 40.7534 27.888 40.7428 27.8774C40.7322 27.8668 40.7262 27.8524 40.7262 27.8374V17.5092C40.7262 17.4942 40.7203 17.4798 40.7097 17.4692C40.6991 17.4586 40.6847 17.4526 40.6697 17.4526H38.7685C38.7609 17.4526 38.7535 17.4511 38.7465 17.4482C38.7396 17.4453 38.7333 17.441 38.728 17.4356C38.7227 17.4301 38.7186 17.4237 38.7158 17.4167C38.7131 17.4097 38.7117 17.4022 38.7119 17.3946L38.7395 15.6225C38.7399 15.6077 38.746 15.5937 38.7566 15.5834C38.7671 15.5731 38.7813 15.5674 38.796 15.5674H44.7302C44.7452 15.5674 44.7596 15.5733 44.7702 15.5839C44.7808 15.5946 44.7868 15.6089 44.7868 15.6239V17.3961C44.7868 17.4111 44.7808 17.4255 44.7702 17.4361C44.7596 17.4467 44.7452 17.4526 44.7302 17.4526H42.8493C42.8343 17.4526 42.8199 17.4586 42.8093 17.4692C42.7987 17.4798 42.7928 17.4942 42.7928 17.5092Z" fill="white"/>
<path d="M47.5756 25.9899L50.7312 26.0174C50.7508 26.0174 50.7696 26.0252 50.7835 26.0391C50.7974 26.053 50.8052 26.0718 50.8052 26.0914V27.8215C50.8052 27.8411 50.7974 27.8599 50.7835 27.8738C50.7696 27.8876 50.7508 27.8954 50.7312 27.8954L45.5134 27.8737C45.4938 27.8737 45.475 27.8659 45.4611 27.852C45.4472 27.8382 45.4395 27.8193 45.4395 27.7997V15.6413C45.4395 15.6217 45.4472 15.6029 45.4611 15.589C45.475 15.5752 45.4938 15.5674 45.5134 15.5674H50.7297C50.7494 15.5674 50.7682 15.5752 50.782 15.589C50.7959 15.6029 50.8037 15.6217 50.8037 15.6413L50.8052 17.3787C50.8052 17.3983 50.7974 17.4171 50.7835 17.431C50.7696 17.4448 50.7508 17.4526 50.7312 17.4526H47.5509C47.5411 17.4526 47.5314 17.4546 47.5223 17.4584C47.5132 17.4622 47.505 17.4678 47.4981 17.4748C47.4912 17.4818 47.4858 17.4901 47.4822 17.4993C47.4785 17.5084 47.4768 17.5182 47.477 17.528L47.5147 20.6082C47.5147 20.6279 47.5225 20.6467 47.5363 20.6605C47.5502 20.6744 47.569 20.6822 47.5886 20.6822L50.0438 20.7199C50.0632 20.7203 50.0816 20.7282 50.0952 20.7421C50.1087 20.7559 50.1163 20.7745 50.1163 20.7939V22.4949C50.1163 22.5145 50.1085 22.5334 50.0946 22.5472C50.0808 22.5611 50.062 22.5689 50.0423 22.5689L47.5828 22.5631C47.5632 22.5631 47.5444 22.5709 47.5305 22.5848C47.5167 22.5986 47.5089 22.6174 47.5089 22.6371L47.5016 25.9159C47.5016 25.9355 47.5094 25.9544 47.5233 25.9682C47.5372 25.9821 47.556 25.9899 47.5756 25.9899Z" fill="white"/>
<path d="M56.7081 21.8873C57.7841 22.6385 57.7232 23.497 57.7623 24.9138C57.7899 25.9202 57.7072 26.7396 57.9755 27.8156C57.9886 27.8736 57.9668 27.9026 57.9074 27.9012L55.9728 27.8765C55.9378 27.876 55.9043 27.8628 55.8784 27.8393C55.8525 27.8158 55.836 27.7837 55.8321 27.7489C55.7176 26.7381 55.6726 25.7187 55.6958 24.6919C55.7219 23.5013 55.4623 22.6225 54.0078 22.9807C53.9759 22.988 53.96 23.0083 53.96 23.0416V27.8214C53.96 27.8693 53.9353 27.8939 53.8874 27.8939H52.0022C51.9543 27.8939 51.9297 27.8693 51.9297 27.8214V15.6398C51.9297 15.5891 51.9543 15.5644 52.0051 15.563C52.5011 15.563 53.5408 15.5731 55.1245 15.5949C56.2571 15.6094 57.0242 16.0256 57.4288 16.845C57.8697 17.7397 57.8508 19.5046 57.6231 20.5313C57.5115 21.0345 57.2069 21.4551 56.7081 21.7959C56.6631 21.8264 56.6631 21.8568 56.7081 21.8873ZM53.9919 17.5048L53.9803 20.9736C53.9803 20.9894 53.9865 21.0045 53.9977 21.0157C54.0088 21.0268 54.0239 21.0331 54.0397 21.0331L54.7358 21.036C54.9892 21.0367 55.2326 20.932 55.4124 20.7449C55.5921 20.5578 55.6936 20.3036 55.6944 20.0383L55.7002 18.4518C55.7006 18.3203 55.6763 18.1901 55.6286 18.0686C55.5809 17.947 55.5109 17.8365 55.4224 17.7433C55.3339 17.6501 55.2288 17.5761 55.1129 17.5255C54.9971 17.4748 54.8729 17.4486 54.7474 17.4482L54.0513 17.4453C54.0355 17.4453 54.0204 17.4516 54.0093 17.4627C53.9981 17.4739 53.9919 17.489 53.9919 17.5048Z" fill="white"/>
<path d="M58.6989 15.6339C58.7083 15.6353 58.7167 15.6404 58.7224 15.648C58.7281 15.6556 58.7306 15.6651 58.7294 15.6745L58.7265 15.6934C58.6745 16.0376 58.584 16.3616 58.475 16.5944C58.3659 16.8271 58.2472 16.9495 58.1449 16.9347L57.9115 16.8999C57.8094 16.8838 57.7322 16.7319 57.6969 16.4774C57.6615 16.2229 57.6709 15.8867 57.7229 15.5425L57.7258 15.5237C57.7273 15.5143 57.7323 15.5059 57.7399 15.5002C57.7475 15.4945 57.757 15.492 57.7665 15.4932L58.6989 15.6339Z" fill="white"/>
<path d="M28.5361 17.5482C28.5361 17.5255 28.5451 17.5037 28.5612 17.4877C28.5772 17.4716 28.599 17.4626 28.6217 17.4626L29.3859 17.4597C29.6044 17.459 29.8142 17.5479 29.9692 17.707C30.1242 17.8661 30.2118 18.0823 30.2126 18.3081L30.2213 20.5559C30.2216 20.6677 30.2007 20.7784 30.1597 20.8819C30.1187 20.9853 30.0583 21.0794 29.9821 21.1587C29.9059 21.238 29.8153 21.301 29.7155 21.3442C29.6157 21.3873 29.5086 21.4097 29.4004 21.41L28.6362 21.4129C28.6135 21.4129 28.5917 21.4039 28.5757 21.3879C28.5596 21.3718 28.5506 21.3501 28.5506 21.3274L28.5361 17.5482Z" fill="black"/>
<path d="M53.9911 17.505C53.9911 17.4892 53.9974 17.4741 54.0085 17.463C54.0197 17.4518 54.0348 17.4456 54.0506 17.4456L54.7466 17.4485C54.8722 17.4488 54.9964 17.4751 55.1122 17.5257C55.228 17.5763 55.3331 17.6503 55.4216 17.7435C55.5101 17.8367 55.5802 17.9472 55.6278 18.0688C55.6755 18.1904 55.6998 18.3206 55.6994 18.452L55.6936 20.0385C55.6928 20.3038 55.5914 20.558 55.4116 20.7451C55.2318 20.9322 54.9885 21.0369 54.735 21.0362L54.0389 21.0333C54.0232 21.0333 54.0081 21.0271 53.9969 21.0159C53.9858 21.0048 53.9795 20.9896 53.9795 20.9739L53.9911 17.505Z" fill="black"/>
</svg>
