<svg width="53" height="46" viewBox="0 0 53 46" fill="none" xmlns="http://www.w3.org/2000/svg">
<g clip-path="url(#clip0_1_244)">
<path d="M1.94123 39.1282L3.6785 43.494L5.35912 39.1282H7.0964L4.40551 45.705H2.91372L0.128418 39.1282H1.94123Z" fill="black"/>
<path d="M7.64396 40.5523C7.94609 39.9902 8.35208 39.578 8.84305 39.3344C9.33402 39.0908 9.85331 38.969 10.382 38.969C11.1279 38.969 11.7511 39.1657 12.2609 39.5686C12.7708 39.9621 13.1107 40.4211 13.2807 40.9645C13.46 41.5266 13.5545 42.0044 13.5545 42.3979C13.5545 43.0631 13.4034 43.6814 13.1013 44.2623C12.8747 44.7026 12.5725 45.0586 12.2043 45.3116C11.8361 45.5645 11.4867 45.7238 11.1657 45.7894C10.8447 45.8456 10.5803 45.8831 10.382 45.8831C9.85331 45.8831 9.38123 45.78 8.98468 45.5833C8.58813 45.3865 8.25767 45.1148 7.9933 44.7869C7.72893 44.459 7.53065 44.0936 7.39847 43.6814C7.26629 43.2692 7.2002 42.8476 7.2002 42.4167C7.2002 41.7234 7.35126 41.1144 7.64396 40.5523ZM8.97524 43.1755C9.04133 43.4191 9.13574 43.6346 9.25849 43.8126C9.38123 43.9906 9.54174 44.1405 9.73057 44.2435C9.91941 44.3466 10.1366 44.4028 10.382 44.4028H10.467C10.7314 44.4028 10.9486 44.3372 11.1279 44.1967C11.3262 44.0374 11.4773 43.8501 11.6 43.6346C11.7133 43.4191 11.7983 43.1943 11.8455 42.96C11.8738 42.7914 11.8927 42.6509 11.8927 42.5291C11.8927 42.4822 11.8927 42.4354 11.8833 42.3979C11.8833 41.9014 11.7794 41.4892 11.5717 41.1519C11.364 40.8146 11.1468 40.6085 10.9108 40.5148C10.6936 40.4305 10.5331 40.393 10.4104 40.4024H10.3726C9.9855 40.4024 9.66448 40.5429 9.40955 40.8146C9.20184 41.0395 9.06021 41.2924 8.98468 41.5735C8.90914 41.8545 8.87138 42.1262 8.87138 42.3979C8.87138 42.6696 8.90914 42.9319 8.97524 43.1755Z" fill="black"/>
<path d="M14.829 40.5524C15.0367 40.1214 15.3294 39.7935 15.707 39.5499C16.0847 39.3063 16.4341 39.1471 16.7645 39.0721C17.0666 38.9972 17.3121 38.9691 17.501 38.9691H17.5576C17.8786 38.9691 18.2563 39.0346 18.6906 39.1658V36.6082H20.3807V45.7145H18.8228L18.7567 45.2086C18.5962 45.3866 18.3885 45.5365 18.1336 45.6676C17.8786 45.7988 17.5765 45.8644 17.2272 45.8644C16.774 45.8644 16.368 45.7707 16.0186 45.574C15.6693 45.3772 15.3766 45.1243 15.1405 44.8057C14.9045 44.4872 14.7251 44.1124 14.6024 43.7002C14.4796 43.2786 14.4135 42.8477 14.4135 42.3886C14.4041 41.686 14.5457 41.077 14.829 40.5524ZM16.1602 43.1381C16.2169 43.3911 16.3113 43.6065 16.4341 43.7939C16.5568 43.9813 16.7173 44.1312 16.9061 44.2436C17.095 44.356 17.3216 44.4122 17.5765 44.4122C17.7842 44.4122 18.0014 44.356 18.2185 44.2436C18.4357 44.1312 18.5962 44 18.6906 43.8408V40.5898C18.3318 40.4587 18.0203 40.3931 17.7653 40.3931C17.2932 40.3931 16.9061 40.543 16.6134 40.8522C16.3302 41.152 16.1602 41.4518 16.113 41.7422C16.0753 41.9483 16.0564 42.1169 16.0564 42.2387C16.0564 42.2762 16.0564 42.3137 16.0658 42.3418C16.0658 42.6228 16.0942 42.8852 16.1602 43.1381Z" fill="black"/>
<path d="M21.5516 42.8476C21.7027 42.5852 21.901 42.3698 22.1465 42.1918C22.3919 42.0137 22.6563 41.8732 22.9301 41.7795C23.2039 41.6858 23.4683 41.6203 23.6949 41.5922C23.8271 41.5734 24.2803 41.5172 25.0734 41.4235V41.3298C25.0734 40.9645 24.979 40.7021 24.7901 40.5522C24.6013 40.4023 24.3464 40.318 24.0065 40.318C23.676 40.318 23.355 40.393 23.0529 40.5335C22.7507 40.674 22.5241 40.8146 22.3636 40.9457L21.7971 39.7559C21.986 39.5685 22.3447 39.3812 22.8735 39.2125C23.4211 39.0345 23.8932 38.9502 24.2897 38.9502C24.7146 38.9502 25.0828 39.0158 25.3944 39.1469C25.706 39.2781 25.9704 39.4561 26.1781 39.6903C26.3858 39.9245 26.5369 40.1869 26.6313 40.496C26.7257 40.8052 26.7729 41.1237 26.7729 41.4704V45.705H25.1961L25.13 45.2085C24.9506 45.4052 24.7146 45.5645 24.4314 45.6863C24.1481 45.7987 23.8365 45.8643 23.4966 45.8643C23.2134 45.8643 22.9396 45.8174 22.6846 45.7237C22.4203 45.63 22.1937 45.4895 21.986 45.3115C21.7877 45.1335 21.6177 44.918 21.495 44.6557C21.3722 44.3934 21.3062 44.103 21.3062 43.7751C21.325 43.419 21.4006 43.1099 21.5516 42.8476ZM23.2323 44.2622C23.3928 44.3934 23.6194 44.459 23.9215 44.459C24.1387 44.459 24.3558 44.4121 24.5635 44.3184C24.7713 44.2248 24.9506 44.1123 25.0923 43.9718V42.6321C24.5352 42.6977 24.1575 42.7445 23.9782 42.7726C23.6099 42.8476 23.355 42.9694 23.2134 43.1474C23.0718 43.3254 22.9962 43.5221 22.9962 43.7282C22.9868 43.9531 23.0623 44.1217 23.2323 44.2622Z" fill="black"/>
<path d="M27.689 39.1282H28.567V38.7722C28.567 38.1351 28.6992 37.6292 28.9636 37.2545C29.2185 36.8704 29.5207 36.6455 29.87 36.5612C30.2005 36.4769 30.4931 36.43 30.7481 36.4207C31.1635 36.4207 31.5034 36.4581 31.7772 36.5331C32.051 36.608 32.2115 36.6642 32.2587 36.6923L32.0605 38.0976C32.0038 38.0695 31.9 38.0321 31.7395 37.9852C31.5789 37.9384 31.3618 37.9103 31.0974 37.9103C30.8614 37.9103 30.6631 37.9759 30.5026 38.1164C30.3421 38.2569 30.2571 38.4818 30.2571 38.8097V39.1188H31.6922V40.4867H30.276V45.705H28.567V40.4867H27.689V39.1282Z" fill="black"/>
<path d="M32.4569 40.5523C32.7591 39.9902 33.1651 39.578 33.656 39.3344C34.147 39.0908 34.6663 38.969 35.195 38.969C35.9409 38.969 36.5641 39.1657 37.0739 39.5686C37.5838 39.9621 37.9237 40.4211 38.0936 40.9645C38.273 41.5266 38.3674 42.0044 38.3674 42.3979C38.3674 43.0631 38.2164 43.6814 37.9142 44.2623C37.6876 44.7026 37.3855 45.0586 37.0173 45.3116C36.6491 45.5645 36.2997 45.7238 35.9787 45.7894C35.6577 45.8456 35.3933 45.8831 35.195 45.8831C34.6663 45.8831 34.1942 45.78 33.7977 45.5833C33.4011 45.3865 33.0707 45.1148 32.8063 44.7869C32.5419 44.459 32.3436 44.0936 32.2115 43.6814C32.0793 43.2692 32.0132 42.8476 32.0132 42.4167C32.0226 41.7234 32.1642 41.1144 32.4569 40.5523ZM33.7977 43.1755C33.8638 43.4191 33.9582 43.6346 34.0809 43.8126C34.2037 43.9906 34.3642 44.1405 34.553 44.2435C34.7418 44.3466 34.959 44.4028 35.2045 44.4028H35.2895C35.5538 44.4028 35.771 44.3372 35.9504 44.1967C36.1486 44.0374 36.2997 43.8501 36.4225 43.6346C36.5452 43.4191 36.6207 43.1943 36.6679 42.96C36.6963 42.7914 36.7152 42.6509 36.7152 42.5291C36.7152 42.4822 36.7152 42.4354 36.7057 42.3979C36.7057 41.9014 36.6019 41.4892 36.3941 41.1519C36.1864 40.8146 35.9693 40.6085 35.7332 40.5148C35.5161 40.4305 35.3555 40.393 35.2328 40.4024H35.195C34.8079 40.4024 34.4869 40.5429 34.232 40.8146C34.0243 41.0395 33.8826 41.2924 33.8071 41.5735C33.7316 41.8545 33.6938 42.1262 33.6938 42.3979C33.6938 42.6696 33.7316 42.9319 33.7977 43.1755Z" fill="black"/>
<path d="M39.3592 39.1283H40.9077L40.9926 39.6529C41.257 39.4374 41.5591 39.2688 41.8896 39.147C42.2295 39.0252 42.56 38.969 42.8999 38.969C43.4286 38.969 43.8912 39.0908 44.2595 39.325C44.6371 39.5592 44.9015 39.9152 45.0526 40.3743C45.2036 40.8334 45.2792 41.3205 45.2792 41.8264V45.7238H43.5702V41.967C43.5702 41.4611 43.4664 41.0769 43.2586 40.8053C43.0509 40.5336 42.7582 40.393 42.3711 40.393C42.1068 40.393 41.8613 40.4586 41.6347 40.5991C41.4081 40.7397 41.2098 40.8896 41.0493 41.0488V45.7144H39.3403V39.1283H39.3592Z" fill="black"/>
<path d="M46.5248 40.9456C46.6853 40.5147 46.9024 40.1587 47.1857 39.8682C47.469 39.5778 47.79 39.353 48.1676 39.1937C48.5359 39.0344 48.9324 38.9595 49.3573 38.9595C50.1032 38.9595 50.7075 39.1656 51.1795 39.5684C51.6516 39.9807 51.9632 40.4585 52.0954 41.0206C52.237 41.564 52.3031 42.0699 52.3031 42.5383V42.8381H48.0071C48.0449 43.3908 48.2148 43.7937 48.5264 44.0373C48.838 44.2809 49.244 44.4027 49.735 44.4027C50.1693 44.4027 50.5564 44.3371 50.8868 44.1966C51.2173 44.0654 51.4439 43.9342 51.5667 43.8124L52.0199 45.1896C51.8216 45.3395 51.6233 45.4426 51.4439 45.4988C51.3306 45.555 51.0568 45.6206 50.6319 45.7049C50.207 45.7986 49.8388 45.8454 49.4989 45.8454C49.0646 45.8454 48.6586 45.7799 48.2621 45.6393C47.8655 45.4988 47.5256 45.2927 47.2329 45.0023C46.9402 44.7118 46.7042 44.3558 46.5342 43.9342C46.3643 43.5033 46.2793 42.9974 46.2793 42.3978C46.2887 41.8638 46.3643 41.3672 46.5248 40.9456ZM50.5658 41.6295C50.5375 41.2548 50.4336 40.9737 50.2354 40.7676C50.0465 40.5709 49.8671 40.4397 49.6878 40.3929C49.5178 40.346 49.4045 40.3179 49.3384 40.3179C49.0457 40.3179 48.7625 40.4304 48.4981 40.6458C48.2337 40.8613 48.0827 41.1892 48.0355 41.6295H50.5658Z" fill="black"/>
<path d="M33.4292 2.25319C30.5022 2.66542 28.2362 5.37296 28.1796 8.67072C32.2301 9.41085 35.2892 12.109 35.2892 16.9245C35.2892 21.5714 31.3992 25.3282 26.5367 25.3282C21.7026 25.3376 17.7843 21.1217 17.7843 15.6597C17.7843 8.12734 24.5256 1.87845 33.0515 2.07519C31.0593 1.19454 28.8594 0.697998 26.5367 0.697998C17.7559 0.697998 10.6274 7.76196 10.6274 16.4842C10.6274 25.2064 17.7559 32.2704 26.5367 32.2704C35.3175 32.2704 42.446 25.2064 42.446 16.4842C42.446 10.2166 38.7637 4.80147 33.4292 2.25319Z" fill="black"/>
</g>
<defs>
<clipPath id="clip0_1_244">
<rect width="52.1749" height="45.1663" fill="white" transform="translate(0.128418 0.697998)"/>
</clipPath>
</defs>
</svg>
