<svg width="32" height="32" viewBox="0 0 32 32" fill="none" xmlns="http://www.w3.org/2000/svg">
<rect x="1" y="1" width="30" height="30" rx="7" fill="#9AFF5B" stroke="black" stroke-width="2"/>
<path d="M21.9403 9.93997C22.2221 9.67175 22.597 9.52347 22.986 9.52641C23.3749 9.52935 23.7476 9.68329 24.0252 9.95575C24.3029 10.2282 24.4638 10.5979 24.4741 10.9867C24.4844 11.3756 24.3432 11.7532 24.0803 12.04L16.1003 22.02C15.9631 22.1678 15.7975 22.2864 15.6134 22.3687C15.4293 22.451 15.2305 22.4954 15.0288 22.4991C14.8272 22.5029 14.6269 22.4659 14.4398 22.3904C14.2528 22.315 14.0829 22.2026 13.9403 22.06L8.64832 16.768C8.50094 16.6306 8.38274 16.465 8.30075 16.281C8.21877 16.0971 8.17469 15.8984 8.17113 15.697C8.16758 15.4956 8.20463 15.2956 8.28007 15.1088C8.35551 14.922 8.4678 14.7523 8.61024 14.6099C8.75268 14.4675 8.92234 14.3552 9.10912 14.2797C9.2959 14.2043 9.49595 14.1672 9.69736 14.1708C9.89877 14.1743 10.0974 14.2184 10.2814 14.3004C10.4654 14.3824 10.631 14.5006 10.7683 14.648L14.9563 18.834L21.9023 9.98397C21.9148 9.96858 21.9262 9.95389 21.9403 9.93997Z" fill="black"/>
</svg>
