<svg width="32" height="32" viewBox="0 0 32 32" fill="none" xmlns="http://www.w3.org/2000/svg">
<rect x="1" y="1" width="30" height="30" rx="7" fill="#8BD5FF"/>
<rect x="1" y="1" width="30" height="30" rx="7" stroke="black" stroke-width="2"/>
<path d="M21.7694 10.4136C22.0512 10.1454 22.4261 9.9971 22.8151 10C23.204 10.003 23.5767 10.1569 23.8543 10.4294C24.132 10.7018 24.2929 11.0715 24.3032 11.4604C24.3135 11.8492 24.1723 12.2269 23.9094 12.5136L15.9294 22.4936C15.7922 22.6414 15.6266 22.76 15.4425 22.8423C15.2584 22.9247 15.0596 22.969 14.8579 22.9728C14.6563 22.9765 14.456 22.9395 14.2689 22.8641C14.0819 22.7886 13.912 22.6762 13.7694 22.5336L8.47742 17.2416C8.33004 17.1043 8.21184 16.9387 8.12985 16.7547C8.04787 16.5707 8.00379 16.3721 8.00023 16.1707C7.99668 15.9692 8.03373 15.7692 8.10917 15.5824C8.18461 15.3956 8.2969 15.226 8.43934 15.0835C8.58178 14.9411 8.75145 14.8288 8.93822 14.7534C9.125 14.6779 9.32506 14.6409 9.52646 14.6444C9.72787 14.648 9.92649 14.6921 10.1105 14.774C10.2945 14.856 10.4601 14.9742 10.5974 15.1216L14.7854 19.3076L21.7314 10.4576C21.7439 10.4422 21.7553 10.4275 21.7694 10.4136Z" fill="black"/>
</svg>
