<svg width="18" height="18" viewBox="0 0 18 18" fill="none" xmlns="http://www.w3.org/2000/svg">
<path d="M16.2222 12.2682L13.6822 11.9782C13.3836 11.9431 13.0808 11.9761 12.7968 12.0749C12.5127 12.1736 12.2548 12.3354 12.0422 12.5482L10.2022 14.3882C7.36342 12.9444 5.05601 10.637 3.61223 7.79816L5.46223 5.94816C5.89223 5.51816 6.10223 4.91816 6.03223 4.30816L5.74223 1.78816C5.68553 1.30034 5.45142 0.850395 5.08446 0.524007C4.71751 0.197618 4.24334 0.0175757 3.75223 0.0181594H2.02223C0.892228 0.0181594 -0.0477718 0.958159 0.0222282 2.08816C0.552228 10.6282 7.38223 17.4482 15.9122 17.9782C17.0422 18.0482 17.9822 17.1082 17.9822 15.9782V14.2482C17.9922 13.2382 17.2322 12.3882 16.2222 12.2682Z" fill="black"/>
</svg>
