<svg width="53" height="53" viewBox="0 0 53 53" fill="none" xmlns="http://www.w3.org/2000/svg">
<path d="M36.5693 7.37329C27.6571 2.91771 17.3907 4.92717 10.4903 11.6936C10.4266 11.7535 10.441 11.7844 10.5314 11.7844L12.7302 11.7883C12.7733 11.7883 12.8123 11.7748 12.8432 11.7458C21.4142 4.45185 33.9328 5.09526 41.6799 13.1389C41.7292 13.1891 41.76 13.1795 41.7703 13.1118C42.1669 10.5324 38.7105 8.44371 36.5693 7.37329Z" stroke="black" stroke-width="0.386434"/>
<path d="M25.2329 12.1835C25.497 12.1739 25.7455 12.0462 25.9236 11.8283C26.1018 11.6105 26.195 11.3204 26.1828 11.0219C26.1706 10.7233 26.054 10.4408 25.8586 10.2365C25.6632 10.0321 25.405 9.92268 25.1409 9.93222C24.8768 9.94176 24.6283 10.0695 24.4502 10.2873C24.272 10.5052 24.1788 10.7953 24.191 11.0938C24.2032 11.3923 24.3198 11.6749 24.5152 11.8792C24.7106 12.0836 24.9688 12.193 25.2329 12.1835Z" stroke="black" stroke-width="0.386434"/>
<path d="M27.7146 12.1817C27.847 12.1867 27.9793 12.1629 28.104 12.1115C28.2287 12.0601 28.3434 11.9823 28.4414 11.8824C28.5395 11.7825 28.619 11.6625 28.6754 11.5292C28.7318 11.396 28.7641 11.2521 28.7703 11.1058C28.783 10.8104 28.6889 10.523 28.5087 10.307C28.3286 10.0909 28.0772 9.96388 27.8098 9.95378C27.6774 9.94878 27.5451 9.97264 27.4204 10.024C27.2957 10.0754 27.181 10.1532 27.083 10.2531C26.9849 10.353 26.9054 10.473 26.849 10.6063C26.7926 10.7395 26.7603 10.8834 26.7541 11.0297C26.7414 11.3251 26.8355 11.6125 27.0157 11.8285C27.1958 12.0446 27.4472 12.1716 27.7146 12.1817Z" stroke="black" stroke-width="0.386434"/>
<path d="M30.035 12.0722C30.0214 12.0702 30.009 12.0639 29.9996 12.0545C29.9903 12.045 29.9845 12.0329 29.9833 12.02C29.9822 12.0071 29.9856 11.9942 29.9931 11.9834C30.0006 11.9725 30.0117 11.9644 30.0248 11.9602C31.8701 11.4192 30.6104 9.69374 29.511 10.4917C29.4514 10.5342 29.4412 10.5864 29.4761 10.6482L29.5953 10.8588C29.6092 10.883 29.6314 10.9019 29.6583 10.9124C29.6853 10.923 29.7152 10.9245 29.7432 10.9168L30.0494 10.8356C30.1117 10.819 30.1783 10.8247 30.2363 10.8516C30.2943 10.8786 30.3396 10.9248 30.3634 10.9814C30.3872 11.038 30.3878 11.1008 30.3651 11.1578C30.3424 11.2148 30.298 11.2618 30.2405 11.2897L29.1432 11.8269C29.0942 11.851 29.054 11.8885 29.028 11.9344C29.002 11.9803 28.9912 12.0325 28.9972 12.0842C29.0032 12.1359 29.0256 12.1848 29.0616 12.2243C29.0975 12.2639 29.1453 12.2924 29.1987 12.306L30.5118 12.6461C30.6042 12.6712 30.6597 12.6384 30.6823 12.5514L30.744 12.3041C30.7484 12.2861 30.7488 12.2675 30.7451 12.2493C30.7414 12.2312 30.7337 12.214 30.7225 12.1989C30.7112 12.1838 30.6967 12.171 30.6799 12.1615C30.663 12.152 30.6443 12.146 30.6248 12.1437L30.035 12.0722Z" stroke="black" stroke-width="0.386434"/>
<path d="M23.0586 11.9426C24.3573 10.3794 22.4257 9.87706 21.9695 10.8258C21.942 10.8819 21.9369 10.9455 21.9549 11.005C21.973 11.0644 22.013 11.1158 22.0679 11.1499C22.1228 11.184 22.1888 11.1985 22.2541 11.1908C22.3193 11.1831 22.3795 11.1536 22.4236 11.1079C22.512 11.017 22.7668 10.6731 22.9148 10.9436C22.999 11.0982 22.9846 11.2431 22.8716 11.3803L22.175 12.2285C22.1364 12.275 22.1144 12.3317 22.112 12.3906C22.1097 12.4495 22.1272 12.5076 22.162 12.5566C22.1969 12.6057 22.2473 12.6431 22.306 12.6636C22.3648 12.6842 22.429 12.6867 22.4894 12.671L23.7861 12.3406C23.8744 12.3193 23.9114 12.2652 23.8929 12.1802C23.7881 11.6778 23.4018 11.9735 23.1079 12.0179C23.0216 12.0314 23.0052 12.0063 23.0586 11.9426Z" stroke="black" stroke-width="0.386434"/>
<path d="M9.28821 22.9564C8.33267 21.8666 7.52098 21.1749 7.92991 19.7123C8.4272 17.9308 10.5417 16.9976 12.4199 16.9319C17.6908 16.7483 23.1343 18.6689 27.9839 19.6195C30.945 20.1992 33.4212 20.5798 36.3577 20.489C39.3764 20.3924 43.5006 19.1539 43.9938 15.8054C44.1828 14.5244 43.8314 13.3245 42.9396 12.2039C42.8923 12.144 42.878 12.1498 42.8964 12.2232C43.7431 15.3301 40.6566 17.2623 37.7941 17.4594C35.3837 17.6236 32.8808 17.4536 30.2874 16.9454C25.9516 16.0972 21.8767 15.019 17.6579 14.1186C15.8968 13.7419 14.1152 13.4965 12.3172 13.3806C8.59981 13.1429 4.73656 15.1852 4.55778 18.9452C4.43243 21.5614 6.44831 23.225 9.26355 23.0105C9.31082 23.0085 9.31904 22.9892 9.28821 22.9564Z" stroke="black" stroke-width="0.386434"/>
<path d="M33.8035 24.9369C33.5138 23.1013 31.5924 23.766 30.2773 23.8587C30.2541 23.8604 30.232 23.8691 30.2143 23.8835C30.1967 23.8978 30.1845 23.9171 30.1796 23.9384C30.1747 23.9597 30.1774 23.9817 30.1872 24.0012C30.1971 24.0206 30.2136 24.0364 30.2341 24.0462C30.8568 24.3553 30.6801 24.9214 30.5424 25.59C30.1787 27.3618 29.819 29.1355 29.4635 30.9073C29.3855 31.2918 29.2416 31.5932 29.0341 31.8115C28.6005 32.2656 27.6244 32.9535 26.9422 32.5786C26.2599 32.2038 26.4818 31.4927 26.6339 30.6967C26.823 29.6958 28.4833 23.9998 25.8777 24.3998C25.2633 24.4944 24.581 24.5698 23.8269 24.6277C23.7956 24.6325 23.7673 24.6478 23.7473 24.6709C23.7272 24.6939 23.7168 24.723 23.7181 24.7528C23.7194 24.7825 23.7322 24.8108 23.7541 24.8323C23.7761 24.8537 23.8056 24.8669 23.8372 24.8693C24.3612 24.8712 24.1742 25.9049 24.1166 26.187C23.7406 28.0129 23.3707 29.8407 23.0049 31.6686C22.9351 32.0202 22.7994 32.31 22.5981 32.5361C22.1994 32.9824 21.7843 33.2665 21.3528 33.3863C20.3294 33.6684 19.8671 32.9535 20.0397 32.0994C20.5904 29.3905 21.1329 26.6816 21.6651 23.9708C21.8624 22.9699 21.6651 21.26 20.0746 21.4165C19.4253 21.4822 18.7512 21.5517 18.0526 21.6252C18.0341 21.6278 18.0171 21.6362 18.0042 21.6489C17.9913 21.6616 17.9833 21.678 17.9814 21.6955C17.9796 21.713 17.9839 21.7305 17.9938 21.7454C18.0037 21.7603 18.0186 21.7717 18.0361 21.7778C18.4738 21.9111 18.6444 22.2222 18.5499 22.7072C17.9663 25.6769 17.3683 28.6428 16.758 31.6067C16.5217 32.7506 16.0983 34.5765 17.4587 35.3667C19.2485 36.4062 21.8049 34.8335 22.8529 33.4636C22.865 33.4476 22.8817 33.4351 22.9009 33.4275C22.9202 33.4199 22.9413 33.4174 22.962 33.4204C22.9827 33.4234 23.002 33.4318 23.0179 33.4445C23.0339 33.4572 23.0457 33.4738 23.0522 33.4925C23.8125 35.7648 26.7017 34.9475 28.1114 33.8481C28.3785 33.6394 28.6436 33.421 28.9046 33.193C28.9909 33.1177 29.0238 33.1351 29.0053 33.2433L28.8943 33.8732C28.8913 33.8893 28.8923 33.9058 28.8973 33.9215C28.9024 33.9372 28.9112 33.9515 28.9232 33.9634C28.9352 33.9752 28.95 33.9842 28.9664 33.9897C28.9828 33.9952 29.0004 33.997 29.0176 33.9949L32.2418 33.6065C32.3158 33.5969 32.3589 33.5582 32.3733 33.4906C32.7987 31.3324 33.2425 29.1761 33.7008 27.0256C33.8816 26.1831 34.6625 24.819 35.7228 24.8654C36.4647 24.8983 36.4421 25.5069 36.327 26.0672C36.0557 27.3985 35.7906 28.7297 35.5338 30.0629C34.5721 35.0518 39.7032 33.7688 41.6266 31.4425C41.6358 31.4317 41.6479 31.4235 41.6617 31.4186C41.6754 31.4137 41.6903 31.4124 41.7048 31.4148C41.7193 31.4171 41.7328 31.4231 41.744 31.4321C41.7552 31.441 41.7636 31.4526 41.7684 31.4657C42.1506 32.5033 42.9849 32.853 44.1377 32.7583C45.8043 32.625 46.9139 31.7652 47.4708 30.1789C47.4773 30.162 47.4776 30.1436 47.4718 30.1265C47.4659 30.1094 47.4542 30.0946 47.4385 30.0844C47.4227 30.0743 47.4039 30.0693 47.3848 30.0703C47.3657 30.0713 47.3476 30.0782 47.3331 30.09C46.8626 30.4552 46.3262 30.5962 45.7221 30.5151C45.6522 30.5054 45.5926 30.4784 45.5433 30.43C45.2125 30.1035 45.0974 29.6746 45.2001 29.1413C45.5515 27.3135 45.9152 25.4895 46.2933 23.6713C46.3 23.6416 46.3162 23.6146 46.3398 23.5941C46.3634 23.5737 46.3932 23.5608 46.4249 23.5573L47.7544 23.4008C47.8407 23.3912 47.8921 23.3467 47.9085 23.2675L48.1941 21.9556C48.1975 21.939 48.1966 21.9219 48.1916 21.9057C48.1867 21.8895 48.1777 21.8746 48.1655 21.8622C48.1534 21.8498 48.1383 21.8402 48.1215 21.8343C48.1047 21.8284 48.0866 21.8262 48.0688 21.828L46.7331 21.9768C46.6447 21.9865 46.6098 21.9517 46.6262 21.8705C46.8317 20.8136 46.9201 18.7945 48.0832 18.298C48.19 18.2535 48.1859 18.2265 48.0688 18.2168C44.8857 17.9714 43.6939 19.6524 43.1288 22.3014C43.1144 22.3671 43.0733 22.4038 43.0014 22.4096L42.1856 22.4888C42.0931 22.4985 42.0376 22.5449 42.0191 22.6318L41.754 23.965C41.7396 24.0442 41.7746 24.079 41.8588 24.0693L42.6685 23.9747C42.7568 23.965 42.7938 23.9998 42.7753 24.0829C42.3664 26.0015 41.9862 27.9298 41.6348 29.8659C41.3841 31.2396 38.5072 32.0627 38.986 29.777C39.2182 28.6621 39.4422 27.5434 39.6559 26.4247C39.9169 25.0683 39.9642 23.3834 38.273 22.912C36.5756 22.4386 34.7878 23.5979 33.9371 24.962C33.8672 25.0741 33.822 25.0663 33.8035 24.9369Z" stroke="black" stroke-width="0.386434"/>
<path d="M13.5148 25.6787C13.9422 23.3002 14.2792 21.6192 14.5258 20.6377C14.645 20.1643 15.0519 19.9634 15.4526 19.6426C15.545 19.5692 15.5307 19.5363 15.4094 19.5441C14.5381 19.5962 13.9217 19.6619 13.56 19.7373C10.605 20.3575 10.4591 23.9224 9.98649 26.1096C9.98115 26.1328 9.96838 26.1538 9.94996 26.1697C9.93154 26.1857 9.90839 26.1957 9.88374 26.1985L9.01246 26.2989C8.94464 26.3067 8.90354 26.3414 8.88916 26.4052L8.60353 27.7712C8.58914 27.8369 8.61791 27.8659 8.68983 27.8582L9.45015 27.7809C9.58372 27.7674 9.63715 27.8234 9.61249 27.9471L7.95006 36.238C7.93568 36.3134 7.96856 36.3462 8.0487 36.3365L11.277 35.9482C11.3633 35.9385 11.4147 35.8921 11.429 35.8129L13.1346 27.4273C13.149 27.3597 13.1901 27.323 13.262 27.3153L16.0197 27.0216C16.0937 27.0138 16.1369 26.9752 16.1492 26.9076L16.4184 25.5473C16.4211 25.5338 16.4204 25.5199 16.4163 25.5067C16.4122 25.4935 16.4048 25.4815 16.3948 25.4715C16.3848 25.4615 16.3724 25.4539 16.3586 25.4493C16.3449 25.4446 16.3301 25.4432 16.3156 25.4449L13.6134 25.7753C13.5333 25.785 13.5004 25.7541 13.5148 25.6787Z" stroke="black" stroke-width="0.386434"/>
<path d="M28.0301 21.4499C27.8961 21.0999 27.5755 20.8292 27.1388 20.6974C26.7021 20.5657 26.1851 20.5836 25.7016 20.7473C25.4621 20.8283 25.2381 20.9427 25.0423 21.0839C24.8465 21.2251 24.6827 21.3904 24.5604 21.5703C24.438 21.7501 24.3594 21.9411 24.3291 22.1322C24.2988 22.3234 24.3173 22.511 24.3837 22.6843C24.5177 23.0343 24.8383 23.305 25.275 23.4368C25.7117 23.5686 26.2287 23.5506 26.7123 23.3869C26.9517 23.3059 27.1757 23.1915 27.3715 23.0503C27.5673 22.9091 27.7311 22.7438 27.8535 22.5639C27.9758 22.3841 28.0544 22.1931 28.0847 22.002C28.1151 21.8108 28.0965 21.6232 28.0301 21.4499Z" stroke="black" stroke-width="0.386434"/>
<path d="M37.9584 43.0093C28.7893 49.6888 16.1207 46.9432 10.1738 37.8292C10.1388 37.7731 10.0875 37.7499 10.0197 37.7577L8.41271 37.9374C8.32024 37.947 8.29763 37.9895 8.34284 38.0649C14.4357 48.3034 28.1071 51.6712 38.3961 44.7695C42.4299 42.0625 45.1958 38.3566 46.6959 33.6499C46.7205 33.5745 46.6979 33.5571 46.626 33.5977C46.0671 33.9204 45.467 34.1503 44.828 34.2894C44.7519 34.3068 44.7006 34.3493 44.6718 34.417C43.2662 37.9084 41.0284 40.7719 37.9584 43.0093Z" stroke="black" stroke-width="0.386434"/>
<path d="M16.121 37.7896C16.121 37.7252 16.1075 37.6613 16.0813 37.6018C16.0551 37.5422 16.0166 37.4881 15.9682 37.4426C15.9197 37.397 15.8622 37.3608 15.7988 37.3362C15.7355 37.3115 15.6676 37.2988 15.5991 37.2988C15.5306 37.2988 15.4627 37.3115 15.3994 37.3362C15.336 37.3608 15.2785 37.397 15.23 37.4426C15.1816 37.4881 15.1431 37.5422 15.1169 37.6018C15.0906 37.6613 15.0771 37.7252 15.0771 37.7896C15.0771 37.9198 15.1321 38.0446 15.23 38.1366C15.3279 38.2287 15.4607 38.2804 15.5991 38.2804C15.7375 38.2804 15.8703 38.2287 15.9682 38.1366C16.0661 38.0446 16.121 37.9198 16.121 37.7896Z" stroke="black" stroke-width="0.386434"/>
<path d="M37.5155 38.2832C37.6461 38.2759 37.7679 38.2156 37.8543 38.1157C37.9406 38.0158 37.9844 37.8843 37.9759 37.7503C37.9717 37.684 37.9548 37.619 37.9262 37.559C37.8976 37.4991 37.8578 37.4454 37.8091 37.401C37.7605 37.3567 37.7038 37.3225 37.6425 37.3004C37.5812 37.2784 37.5163 37.2689 37.4517 37.2725C37.3211 37.2798 37.1992 37.34 37.1129 37.4399C37.0265 37.5399 36.9828 37.6713 36.9913 37.8053C36.9955 37.8717 37.0123 37.9367 37.041 37.9966C37.0696 38.0565 37.1094 38.1102 37.158 38.1546C37.2067 38.199 37.2633 38.2332 37.3247 38.2552C37.386 38.2773 37.4509 38.2868 37.5155 38.2832Z" stroke="black" stroke-width="0.386434"/>
<path d="M35.3614 39.4882L34.8497 38.7945C34.7942 38.7192 34.7285 38.7095 34.6524 38.7675L34.3709 38.9839C34.3509 38.9992 34.3378 39.0213 34.3344 39.0456C34.331 39.07 34.3374 39.0949 34.3524 39.1152L35.4004 40.5315C35.4416 40.5875 35.5009 40.6294 35.5695 40.651C35.638 40.6727 35.7122 40.6728 35.7809 40.6515C35.8496 40.6302 35.9091 40.5886 35.9506 40.5328C35.992 40.477 36.0131 40.4102 36.0107 40.3422L35.9676 39.1249C35.9635 39.0186 35.9943 39.007 36.0621 39.094L36.6272 39.8379C36.6765 39.9016 36.7341 39.9074 36.7978 39.8591L37.067 39.6543C37.0894 39.6372 37.1041 39.6128 37.1083 39.586C37.1125 39.5592 37.1058 39.5318 37.0896 39.5094L35.9573 37.9386C35.9286 37.8999 35.8936 37.8941 35.8525 37.9192L35.5135 38.1298C35.4806 38.1511 35.4641 38.182 35.4641 38.2207L35.4929 39.4476C35.495 39.5983 35.4518 39.6118 35.3614 39.4882Z" stroke="black" stroke-width="0.386434"/>
<path d="M17.3274 39.9087C17.2622 39.9065 17.1982 39.8912 17.1398 39.864C17.0813 39.8368 17.0297 39.7982 16.9885 39.7508C16.9472 39.7034 16.9173 39.6483 16.9006 39.5893C16.8839 39.5302 16.8809 39.4685 16.8918 39.4082C17.0048 38.7552 17.8905 38.5562 18.0014 39.2942C18.0034 39.3066 18.008 39.3184 18.0149 39.3291C18.0219 39.3398 18.0311 39.3491 18.042 39.3564C18.0529 39.3638 18.0652 39.3691 18.0784 39.372C18.0915 39.3749 18.1052 39.3754 18.1185 39.3735L18.4761 39.3194C18.5357 39.3097 18.5604 39.2788 18.5521 39.2228C18.4021 38.0461 16.7623 37.849 16.3493 39.0276C16.1047 39.7251 16.7993 40.5888 17.537 40.4941C17.6128 40.4831 17.6816 40.446 17.7301 40.3901C17.7785 40.3341 17.8032 40.2633 17.7994 40.1912C17.7956 40.1192 17.7635 40.051 17.7093 39.9999C17.6552 39.9488 17.5828 39.9184 17.5062 39.9145L17.3274 39.9087Z" stroke="black" stroke-width="0.386434"/>
<path d="M19.7647 40.4922V39.6459C19.7647 39.5745 19.7298 39.5223 19.6579 39.4933L19.2797 39.3387C19.216 39.3136 19.1832 39.3329 19.1832 39.3986L19.2078 40.9927C19.2082 41.007 19.2045 41.0212 19.197 41.0337C19.1895 41.0462 19.1785 41.0567 19.1651 41.0639C19.1517 41.0712 19.1365 41.075 19.1209 41.0751C19.1053 41.0751 19.0899 41.0714 19.0763 41.0642L18.8811 40.9579C18.8291 40.9292 18.768 40.9186 18.7086 40.9279C18.6491 40.9373 18.595 40.9661 18.5558 41.0091C18.5166 41.0522 18.4948 41.1069 18.4942 41.1636C18.4935 41.2203 18.5141 41.2753 18.5523 41.3192C19.177 42.0476 20.5559 40.7183 21.0552 40.3241C21.1004 40.2874 21.0984 40.2546 21.049 40.2237L20.7059 40.0073C20.6846 39.9938 20.6592 39.9871 20.6333 39.9881C20.6075 39.9892 20.5825 39.9979 20.562 40.0131L19.8736 40.5405C19.8017 40.5966 19.7647 40.5792 19.7647 40.4922Z" stroke="black" stroke-width="0.386434"/>
<path d="M32.7716 40.5252L32.5435 40.0441C32.5369 40.0301 32.5271 40.0176 32.5149 40.0075C32.5026 39.9973 32.4882 39.9898 32.4726 39.9854C32.457 39.981 32.4406 39.9798 32.4244 39.982C32.4083 39.9841 32.3928 39.9895 32.3791 39.9978L32.0811 40.1813C32.0236 40.2161 32.0092 40.2625 32.0359 40.3224L32.8003 41.9164C32.8296 41.9835 32.8854 42.0373 32.956 42.0665C33.0266 42.0957 33.1064 42.098 33.1788 42.073C33.2512 42.048 33.3104 41.9975 33.3441 41.9323C33.3777 41.8671 33.3832 41.7921 33.3593 41.7232L33.2154 41.2633C33.208 41.2381 33.209 41.2114 33.2183 41.1867C33.2276 41.162 33.2447 41.1407 33.2674 41.1255C33.2901 41.1103 33.3171 41.102 33.345 41.1018C33.3728 41.1016 33.4 41.1094 33.423 41.1242L33.9901 41.4875C34.0219 41.5075 34.0589 41.5191 34.0976 41.5211C34.1362 41.5231 34.175 41.5155 34.21 41.4991L34.6272 41.2943C34.7196 41.2498 34.7217 41.2015 34.6313 41.1513L33.5997 40.5755C33.5319 40.5388 33.5093 40.4827 33.5278 40.4113L33.7703 39.4664C33.7888 39.3969 33.76 39.3717 33.6881 39.3911C33.0346 39.5534 33.1188 40.0248 32.9401 40.5175C32.9343 40.5338 32.9235 40.5481 32.9089 40.5585C32.8944 40.5689 32.8769 40.5749 32.8586 40.5757C32.8404 40.5766 32.8223 40.5722 32.8068 40.5632C32.7912 40.5542 32.779 40.5409 32.7716 40.5252Z" stroke="black" stroke-width="0.386434"/>
<path d="M22.3843 41.1049L22.2897 40.7166C22.2828 40.6863 22.2678 40.6582 22.2463 40.6346C22.2248 40.611 22.1974 40.5927 22.1664 40.5813L21.7925 40.4422C21.7729 40.435 21.7515 40.4332 21.7309 40.437C21.7103 40.4407 21.6912 40.4499 21.6759 40.4635C21.6606 40.4771 21.6498 40.4944 21.6446 40.5136C21.6394 40.5327 21.6401 40.5529 21.6466 40.5717L21.9692 41.4972C21.9938 41.5687 21.9753 41.6286 21.9157 41.6788L21.1184 42.3241C21.0588 42.3724 21.0609 42.4188 21.1287 42.4594C21.4965 42.6797 21.7966 42.6217 22.0288 42.2836C22.0453 42.2597 22.0696 42.2415 22.0981 42.2317C22.1265 42.222 22.1576 42.2212 22.1866 42.2295C22.2155 42.2378 22.2409 42.2547 22.2587 42.2777C22.2766 42.3007 22.286 42.3285 22.2856 42.357C22.2795 42.7801 22.5035 42.9888 22.9555 42.9811C23.0275 42.9791 23.0521 42.9463 23.0316 42.8825L22.7048 41.8894C22.6822 41.8198 22.6987 41.7619 22.7562 41.7136L23.5145 41.076C23.5946 41.0083 23.5843 40.9523 23.4878 40.9117C23.1158 40.7514 22.8179 40.8267 22.5959 41.1417C22.5832 41.1596 22.5652 41.1736 22.5441 41.182C22.523 41.1904 22.4998 41.1927 22.4772 41.1888C22.4547 41.1849 22.4339 41.1749 22.4174 41.16C22.4009 41.1451 22.3893 41.1259 22.3843 41.1049Z" stroke="black" stroke-width="0.386434"/>
<path d="M30.2195 41.8435C30.1579 41.5402 30.0736 41.2426 29.9647 40.9509C29.938 40.8813 29.8866 40.8542 29.8085 40.8697L29.525 40.9257C29.5074 40.9291 29.4908 40.9358 29.4762 40.9454C29.4615 40.9551 29.4491 40.9674 29.4397 40.9817C29.4303 40.996 29.424 41.0119 29.4214 41.0285C29.4187 41.0452 29.4197 41.0621 29.4243 41.0784L29.8702 42.7497C29.8891 42.8189 29.9313 42.8804 29.9906 42.9251C30.0498 42.9698 30.1228 42.9952 30.1987 42.9976C30.2746 43 30.3493 42.9792 30.4116 42.9384C30.4739 42.8975 30.5204 42.8388 30.5442 42.771L30.9161 41.6889C30.9675 41.5402 31.0107 41.5421 31.0456 41.6947L31.2552 42.5893C31.258 42.6019 31.2636 42.6138 31.2716 42.6242C31.2796 42.6346 31.2899 42.6433 31.3017 42.6496C31.3135 42.656 31.3267 42.66 31.3403 42.6613C31.3539 42.6625 31.3676 42.661 31.3806 42.657L31.7361 42.543C31.8141 42.5178 31.8429 42.4676 31.8224 42.3922L31.3641 40.7248C31.3451 40.6585 31.3038 40.5998 31.2462 40.5575C31.1887 40.5152 31.1181 40.4916 31.0451 40.4903C30.9721 40.489 30.9006 40.51 30.8414 40.5502C30.7822 40.5904 30.7385 40.6476 30.7168 40.7132L30.3551 41.8493C30.2997 42.0213 30.2545 42.0193 30.2195 41.8435Z" stroke="black" stroke-width="0.386434"/>
<path d="M25.1336 41.1279C25.1095 41.1246 25.085 41.1284 25.0636 41.1388C25.0422 41.1492 25.025 41.1657 25.0144 41.1858L24.0219 43.0639C23.9828 43.1393 24.0075 43.1837 24.0958 43.1972L24.4863 43.2552C24.5049 43.2582 24.524 43.2574 24.5423 43.2528C24.5606 43.2483 24.5777 43.2401 24.5925 43.2288C24.6073 43.2174 24.6193 43.2033 24.628 43.1872C24.6366 43.1711 24.6415 43.1534 24.6424 43.1354C24.6486 43.06 24.6918 42.9963 24.7719 42.9402C24.8212 42.9074 24.8767 42.8939 24.9383 42.8997L25.5117 42.9634C25.5959 42.9731 25.6432 43.0156 25.6555 43.0948C25.7007 43.3943 25.9001 43.4851 26.2556 43.3673C26.3008 43.3518 26.3151 43.3228 26.3008 43.2784L25.6596 41.3288C25.6329 41.2457 25.5713 41.1955 25.4788 41.182L25.1336 41.1279Z" stroke="black" stroke-width="0.386434"/>
<path d="M28.8385 42.2488C29.4467 41.076 27.7987 41.0683 27.1431 41.2016C27.0733 41.2151 27.0425 41.2557 27.0486 41.3233L27.2274 43.2593C27.2336 43.3289 27.2726 43.3598 27.3466 43.3521L27.7185 43.3134C27.7379 43.3113 27.7566 43.3056 27.7735 43.2964C27.7904 43.2873 27.8052 43.2751 27.8169 43.2605C27.8286 43.2458 27.837 43.2291 27.8417 43.2113C27.8463 43.1935 27.8471 43.175 27.8439 43.1569L27.7843 42.8072C27.7822 42.7954 27.7827 42.7834 27.7856 42.7717C27.7885 42.7601 27.7939 42.7491 27.8013 42.7394C27.8087 42.7297 27.8182 42.7215 27.829 42.7152C27.8398 42.709 27.8519 42.7048 27.8644 42.7029C28.2323 42.6507 28.6617 42.5889 28.8385 42.2488Z" stroke="black" stroke-width="0.386434"/>
<path d="M25.2171 11.6654C25.3204 11.6588 25.415 11.5913 25.4802 11.4778C25.5453 11.3643 25.5757 11.2141 25.5645 11.0602C25.5534 10.9063 25.5016 10.7614 25.4207 10.6572C25.3398 10.5531 25.2362 10.4983 25.1329 10.5049C25.0296 10.5116 24.935 10.579 24.8698 10.6925C24.8047 10.806 24.7743 10.9562 24.7855 11.1101C24.7966 11.264 24.8484 11.409 24.9293 11.5131C25.0102 11.6172 25.1138 11.672 25.2171 11.6654Z" stroke="black" stroke-width="0.386434"/>
<path d="M27.736 11.6376C27.8406 11.6405 27.9428 11.5843 28.02 11.4813C28.0973 11.3784 28.1434 11.2371 28.148 11.0885C28.1504 11.015 28.1425 10.9419 28.1248 10.8734C28.1071 10.8048 28.08 10.7423 28.045 10.6893C28.01 10.6362 27.9679 10.5938 27.9209 10.5643C27.874 10.5348 27.8231 10.5189 27.7713 10.5174C27.6667 10.5145 27.5646 10.5707 27.4873 10.6737C27.41 10.7767 27.364 10.918 27.3593 11.0665C27.357 11.1401 27.3649 11.2132 27.3825 11.2817C27.4002 11.3502 27.4273 11.4127 27.4623 11.4658C27.4973 11.5188 27.5394 11.5613 27.5864 11.5908C27.6334 11.6202 27.6842 11.6362 27.736 11.6376Z" stroke="black" stroke-width="0.386434"/>
<path d="M25.1189 42.0283C25.0388 42.204 25.0286 42.341 25.0922 42.4413C25.1144 42.4726 25.148 42.4952 25.1867 42.5049C25.2254 42.5145 25.2665 42.5106 25.3022 42.4938C25.338 42.4769 25.3661 42.4484 25.3811 42.4135C25.396 42.3786 25.397 42.3398 25.3837 42.3043L25.2646 42.0303C25.2174 41.9222 25.1702 41.9222 25.1189 42.0283Z" stroke="black" stroke-width="0.386434"/>
<path d="M27.7294 41.7388L27.7212 42.1132C27.7209 42.1269 27.7235 42.1405 27.7289 42.1532C27.7342 42.1659 27.7421 42.1776 27.7522 42.1874C27.7623 42.1973 27.7744 42.2052 27.7877 42.2106C27.8011 42.2161 27.8154 42.2191 27.83 42.2193L27.8936 42.2212C27.9507 42.2225 28.0074 42.2168 28.0604 42.2046C28.1134 42.1925 28.1617 42.174 28.2025 42.1504C28.2433 42.1267 28.2758 42.0983 28.2982 42.0667C28.3206 42.0351 28.3324 42.0011 28.3328 41.9665V41.9086C28.3339 41.8392 28.2896 41.7719 28.2096 41.7212C28.1296 41.6706 28.0204 41.6408 27.9059 41.6384L27.8423 41.6365C27.8277 41.6362 27.8133 41.6387 27.7997 41.6437C27.7862 41.6487 27.7738 41.6562 27.7633 41.6656C27.7528 41.6751 27.7445 41.6865 27.7386 41.699C27.7328 41.7116 27.7297 41.7251 27.7294 41.7388Z" stroke="black" stroke-width="0.386434"/>
<path d="M26.5372 52.9684C19.5726 52.9684 12.8933 50.2018 7.96867 45.277C3.044 40.3523 0.277344 33.673 0.277344 26.7083C0.277344 19.7437 3.044 13.0644 7.96867 8.13965C12.8933 3.21492 19.5726 0.448242 26.5372 0.448242C33.5017 0.448242 40.181 3.21492 45.1057 8.13965C50.0304 13.0644 52.797 19.7437 52.797 26.7083C52.797 33.673 50.0304 40.3523 45.1057 45.277C40.181 50.2018 33.5017 52.9684 26.5372 52.9684ZM36.5693 7.37313C27.6571 2.91755 17.3907 4.92701 10.4903 11.6935C10.4266 11.7534 10.441 11.7843 10.5314 11.7843L12.7302 11.7881C12.7733 11.7881 12.8124 11.7746 12.8432 11.7456C21.4143 4.45169 33.9328 5.09511 41.6799 13.1387C41.7292 13.189 41.76 13.1793 41.7703 13.1117C42.1669 10.5322 38.7105 8.44355 36.5693 7.37313ZM25.2331 12.1834C25.4972 12.1739 25.7457 12.0461 25.9238 11.8283C26.102 11.6104 26.1952 11.3203 26.183 11.0218C26.1708 10.7233 26.0542 10.4408 25.8588 10.2364C25.6634 10.0321 25.4052 9.92261 25.1411 9.93215C24.877 9.9417 24.6285 10.0694 24.4504 10.2873C24.2722 10.5051 24.179 10.7952 24.1912 11.0938C24.2034 11.3923 24.32 11.6748 24.5154 11.8791C24.7108 12.0835 24.969 12.1929 25.2331 12.1834ZM27.7143 12.1814C27.8467 12.1864 27.979 12.1625 28.1037 12.1112C28.2285 12.0598 28.3431 11.982 28.4411 11.8821C28.5392 11.7821 28.6187 11.6621 28.6751 11.5289C28.7315 11.3957 28.7638 11.2518 28.7701 11.1055C28.7827 10.8101 28.6886 10.5227 28.5084 10.3067C28.3283 10.0906 28.0769 9.96357 27.8095 9.95347C27.6771 9.94847 27.5448 9.97233 27.4201 10.0237C27.2954 10.0751 27.1807 10.1529 27.0827 10.2528C26.9847 10.3527 26.9051 10.4727 26.8487 10.606C26.7923 10.7392 26.76 10.8831 26.7538 11.0294C26.7411 11.3248 26.8353 11.6122 27.0154 11.8282C27.1955 12.0443 27.4469 12.1713 27.7143 12.1814ZM30.0347 12.0722C30.0211 12.0701 30.0086 12.0639 29.9992 12.0544C29.9899 12.0449 29.9841 12.0328 29.983 12.0199C29.9818 12.007 29.9852 11.9941 29.9927 11.9833C30.0002 11.9725 30.0114 11.9643 30.0244 11.9601C31.8697 11.4191 30.61 9.69367 29.5106 10.4917C29.4511 10.5342 29.4408 10.5863 29.4757 10.6482L29.5949 10.8588C29.6088 10.8829 29.631 10.9018 29.658 10.9124C29.6849 10.9229 29.7149 10.9245 29.7429 10.9167L30.049 10.8356C30.1113 10.8189 30.1779 10.8246 30.2359 10.8516C30.2939 10.8785 30.3392 10.9247 30.363 10.9813C30.3869 11.0379 30.3875 11.1008 30.3648 11.1577C30.342 11.2147 30.2976 11.2617 30.2401 11.2896L29.1428 11.8268C29.0938 11.8509 29.0537 11.8884 29.0276 11.9343C29.0016 11.9802 28.9909 12.0324 28.9968 12.0842C29.0028 12.1359 29.0253 12.1847 29.0612 12.2243C29.0971 12.2638 29.1449 12.2923 29.1983 12.306L30.5114 12.646C30.6039 12.6711 30.6593 12.6383 30.682 12.5513L30.7436 12.304C30.7481 12.2861 30.7485 12.2674 30.7448 12.2493C30.7411 12.2311 30.7333 12.214 30.7221 12.1988C30.7108 12.1837 30.6963 12.171 30.6795 12.1615C30.6627 12.1519 30.6439 12.1459 30.6244 12.1437L30.0347 12.0722ZM23.0582 11.9427C24.3569 10.3796 22.4253 9.87722 21.9691 10.8259C21.9416 10.8821 21.9364 10.9457 21.9545 11.0051C21.9725 11.0646 22.0126 11.116 22.0675 11.1501C22.1224 11.1842 22.1884 11.1987 22.2536 11.1909C22.3189 11.1832 22.379 11.1538 22.4232 11.108C22.5116 11.0172 22.7664 10.6733 22.9144 10.9438C22.9986 11.0984 22.9842 11.2433 22.8712 11.3804L22.1746 12.2287C22.136 12.2751 22.1139 12.3319 22.1116 12.3908C22.1093 12.4497 22.1268 12.5078 22.1616 12.5568C22.1965 12.6058 22.2468 12.6433 22.3056 12.6638C22.3644 12.6843 22.4286 12.6869 22.489 12.6711L23.7856 12.3407C23.874 12.3195 23.911 12.2654 23.8925 12.1804C23.7877 11.678 23.4014 11.9736 23.1075 12.0181C23.0212 12.0316 23.0048 12.0065 23.0582 11.9427ZM9.28817 22.9561C8.33263 21.8663 7.52094 21.1746 7.92987 19.712C8.42716 17.9305 10.5417 16.9973 12.4199 16.9316C17.6907 16.748 23.1342 18.6686 27.9838 19.6192C30.945 20.1989 33.4212 20.5795 36.3576 20.4887C39.3763 20.3921 43.5005 19.1536 43.9937 15.8051C44.1828 14.5241 43.8314 13.3242 42.9396 12.2036C42.8923 12.1437 42.8779 12.1495 42.8964 12.2229C43.743 15.3298 40.6565 17.262 37.794 17.4591C35.3836 17.6233 32.8807 17.4533 30.2874 16.9451C25.9515 16.0969 21.8766 15.0187 17.6579 14.1183C15.8968 13.7416 14.1152 13.4962 12.3171 13.3802C8.59977 13.1426 4.73652 15.1849 4.55774 18.9449C4.43239 21.561 6.44827 23.2246 9.26351 23.0102C9.31078 23.0082 9.31899 22.9889 9.28817 22.9561ZM33.8034 24.9365C33.5136 23.101 31.5923 23.7656 30.2771 23.8584C30.2539 23.86 30.2318 23.8687 30.2142 23.8831C30.1965 23.8975 30.1843 23.9168 30.1794 23.9381C30.1745 23.9593 30.1772 23.9814 30.1871 24.0008C30.1969 24.0203 30.2134 24.0361 30.234 24.0458C30.8566 24.355 30.6799 24.9211 30.5422 25.5896C30.1785 27.3614 29.8189 29.1351 29.4634 30.9069C29.3853 31.2914 29.2415 31.5929 29.0339 31.8112C28.6003 32.2653 27.6242 32.9531 26.942 32.5783C26.2598 32.2034 26.4817 31.4924 26.6338 30.6963C26.8228 29.6955 28.4832 23.9994 25.8775 24.3994C25.2631 24.4941 24.5809 24.5694 23.8267 24.6274C23.7955 24.6321 23.7671 24.6475 23.7471 24.6705C23.7271 24.6935 23.7167 24.7227 23.718 24.7524C23.7192 24.7822 23.732 24.8105 23.754 24.8319C23.7759 24.8534 23.8055 24.8665 23.837 24.8689C24.361 24.8708 24.174 25.9046 24.1165 26.1867C23.7404 28.0126 23.3705 29.8404 23.0048 31.6682C22.9349 32.0199 22.7993 32.3097 22.5979 32.5358C22.1992 32.9821 21.7841 33.2661 21.3526 33.3859C20.3293 33.668 19.8669 32.9531 20.0395 32.0991C20.5902 29.3902 21.1327 26.6813 21.665 23.9705C21.8622 22.9696 21.665 21.2596 20.0745 21.4161C19.4251 21.4818 18.7511 21.5514 18.0524 21.6248C18.0339 21.6275 18.0169 21.6358 18.0041 21.6485C17.9912 21.6613 17.9832 21.6777 17.9813 21.6951C17.9794 21.7126 17.9838 21.7302 17.9937 21.7451C18.0036 21.76 18.0184 21.7714 18.036 21.7774C18.4737 21.9108 18.6442 22.2218 18.5497 22.7068C17.9661 25.6766 17.3681 28.6424 16.7578 31.6064C16.5215 32.7502 16.0982 34.5761 17.4585 35.3664C19.2484 36.4059 21.8047 34.8331 22.8527 33.4632C22.8649 33.4472 22.8815 33.4347 22.9008 33.4271C22.9201 33.4195 22.9412 33.4171 22.9618 33.4201C22.9825 33.4231 23.0019 33.4314 23.0178 33.4441C23.0337 33.4569 23.0456 33.4735 23.052 33.4922C23.8124 35.7644 26.7016 34.9471 28.1112 33.8477C28.3784 33.639 28.6435 33.4207 28.9044 33.1927C28.9908 33.1173 29.0236 33.1347 29.0051 33.2429L28.8942 33.8728C28.8911 33.8889 28.8922 33.9055 28.8972 33.9212C28.9022 33.9368 28.9111 33.9512 28.9231 33.963C28.9351 33.9749 28.9499 33.9839 28.9663 33.9894C28.9827 33.9948 29.0002 33.9966 29.0175 33.9945L32.2416 33.6062C32.3156 33.5965 32.3588 33.5579 32.3732 33.4903C32.7985 31.332 33.2424 29.1757 33.7006 27.0252C33.8815 26.1828 34.6623 24.8187 35.7227 24.8651C36.4645 24.8979 36.4419 25.5065 36.3268 26.0669C36.0556 27.3981 35.7905 28.7294 35.5336 30.0626C34.5719 35.0514 39.7031 33.7685 41.6265 31.4422C41.6357 31.4314 41.6478 31.4231 41.6615 31.4182C41.6753 31.4134 41.6902 31.412 41.7046 31.4144C41.7191 31.4168 41.7326 31.4227 41.7438 31.4317C41.755 31.4407 41.7635 31.4523 41.7683 31.4653C42.1505 32.5029 42.9848 32.8526 44.1376 32.758C45.8041 32.6246 46.9138 31.7648 47.4707 30.1785C47.4771 30.1616 47.4775 30.1432 47.4716 30.1261C47.4658 30.109 47.4541 30.0942 47.4383 30.0841C47.4226 30.0739 47.4037 30.069 47.3846 30.07C47.3656 30.071 47.3474 30.0779 47.333 30.0896C46.8624 30.4548 46.3261 30.5959 45.7219 30.5147C45.6521 30.5051 45.5925 30.478 45.5431 30.4297C45.2123 30.1032 45.0972 29.6742 45.2 29.1409C45.5514 27.3131 45.9151 25.4891 46.2932 23.671C46.2998 23.6412 46.3161 23.6142 46.3397 23.5938C46.3633 23.5733 46.393 23.5605 46.4247 23.557L47.7542 23.4005C47.8405 23.3908 47.8919 23.3464 47.9084 23.2671L48.194 21.9552C48.1973 21.9386 48.1964 21.9215 48.1915 21.9053C48.1865 21.8891 48.1776 21.8742 48.1654 21.8618C48.1532 21.8494 48.1381 21.8399 48.1213 21.834C48.1045 21.828 48.0865 21.8259 48.0686 21.8277L46.7329 21.9765C46.6446 21.9861 46.6096 21.9513 46.6261 21.8702C46.8316 20.8133 46.9199 18.7942 48.083 18.2976C48.1899 18.2532 48.1858 18.2261 48.0686 18.2165C44.8856 17.9711 43.6937 19.6521 43.1286 22.3011C43.1142 22.3668 43.0731 22.4035 43.0012 22.4093L42.1854 22.4885C42.0929 22.4981 42.0374 22.5445 42.019 22.6315L41.7539 23.9647C41.7395 24.0439 41.7744 24.0787 41.8587 24.069L42.6683 23.9743C42.7567 23.9647 42.7937 23.9994 42.7752 24.0825C42.3662 26.0012 41.9861 27.9295 41.6347 29.8655C41.384 31.2393 38.5071 32.0624 38.9859 29.7766C39.2181 28.6618 39.4421 27.543 39.6558 26.4243C39.9168 25.0679 39.964 23.3831 38.2728 22.9116C36.5755 22.4382 34.7877 23.5975 33.9369 24.9617C33.8671 25.0737 33.8219 25.066 33.8034 24.9365ZM13.5151 25.6785C13.9426 23.3 14.2796 21.619 14.5262 20.6375C14.6454 20.1641 15.0522 19.9631 15.4529 19.6424C15.5454 19.569 15.531 19.5361 15.4098 19.5439C14.5385 19.596 13.922 19.6617 13.5604 19.7371C10.6054 20.3573 10.4595 23.9222 9.98684 26.1094C9.9815 26.1326 9.96873 26.1536 9.95032 26.1695C9.9319 26.1854 9.90875 26.1955 9.8841 26.1982L9.01281 26.2987C8.945 26.3065 8.9039 26.3412 8.88952 26.405L8.60388 27.771C8.5895 27.8367 8.61827 27.8657 8.69019 27.858L9.45051 27.7807C9.58408 27.7672 9.63751 27.8232 9.61285 27.9469L7.95042 36.2378C7.93603 36.3131 7.96891 36.346 8.04905 36.3363L11.2773 35.948C11.3636 35.9383 11.415 35.8919 11.4294 35.8127L13.135 27.4271C13.1494 27.3595 13.1905 27.3228 13.2624 27.315L16.0201 27.0214C16.0941 27.0136 16.1372 26.975 16.1496 26.9074L16.4187 25.5471C16.4215 25.5336 16.4207 25.5197 16.4166 25.5065C16.4125 25.4933 16.4052 25.4813 16.3952 25.4713C16.3851 25.4613 16.3727 25.4537 16.359 25.449C16.3452 25.4444 16.3305 25.4429 16.316 25.4447L13.6138 25.7751C13.5336 25.7848 13.5008 25.7538 13.5151 25.6785ZM28.0296 21.4501C27.8955 21.1 27.5749 20.8294 27.1382 20.6976C26.7015 20.5658 26.1845 20.5838 25.701 20.7474C25.4616 20.8285 25.2375 20.9429 25.0417 21.0841C24.8459 21.2253 24.6822 21.3906 24.5598 21.5704C24.4374 21.7503 24.3588 21.9413 24.3285 22.1324C24.2982 22.3236 24.3167 22.5111 24.3831 22.6845C24.5171 23.0345 24.8378 23.3052 25.2745 23.4369C25.7111 23.5687 26.2281 23.5508 26.7117 23.3871C26.9511 23.306 27.1751 23.1917 27.3709 23.0504C27.5667 22.9092 27.7305 22.744 27.8529 22.5641C27.9753 22.3842 28.0539 22.1933 28.0842 22.0021C28.1145 21.811 28.0959 21.6234 28.0296 21.4501ZM37.9584 43.01C28.7894 49.6895 16.1208 46.9439 10.1738 37.8299C10.1389 37.7739 10.0875 37.7507 10.0197 37.7584L8.41277 37.9381C8.3203 37.9478 8.2977 37.9903 8.34291 38.0656C14.4357 48.3042 28.1071 51.672 38.3961 44.7702C42.4299 42.0633 45.1959 38.3574 46.6959 33.6506C46.7206 33.5753 46.698 33.5579 46.6261 33.5985C46.0671 33.9211 45.4671 34.1511 44.828 34.2902C44.752 34.3076 44.7006 34.3501 44.6719 34.4177C43.2663 37.9091 41.0285 40.7726 37.9584 43.01ZM16.1208 37.7893C16.1208 37.7249 16.1073 37.6611 16.0811 37.6015C16.0548 37.542 16.0164 37.4879 15.9679 37.4423C15.9194 37.3967 15.8619 37.3606 15.7986 37.3359C15.7352 37.3112 15.6674 37.2986 15.5988 37.2986C15.5303 37.2986 15.4624 37.3112 15.3991 37.3359C15.3358 37.3606 15.2782 37.3967 15.2298 37.4423C15.1813 37.4879 15.1428 37.542 15.1166 37.6015C15.0904 37.6611 15.0769 37.7249 15.0769 37.7893C15.0769 37.9195 15.1319 38.0443 15.2298 38.1364C15.3276 38.2284 15.4604 38.2801 15.5988 38.2801C15.7373 38.2801 15.87 38.2284 15.9679 38.1364C16.0658 38.0443 16.1208 37.9195 16.1208 37.7893ZM37.5157 38.2831C37.6462 38.2758 37.7681 38.2155 37.8544 38.1156C37.9408 38.0157 37.9845 37.8843 37.9761 37.7502C37.9719 37.6839 37.955 37.6189 37.9264 37.5589C37.8977 37.499 37.858 37.4453 37.8093 37.401C37.7606 37.3566 37.704 37.3224 37.6426 37.3003C37.5813 37.2783 37.5165 37.2688 37.4518 37.2724C37.3212 37.2797 37.1994 37.3399 37.113 37.4398C37.0267 37.5398 36.983 37.6712 36.9914 37.8052C36.9956 37.8716 37.0125 37.9366 37.0411 37.9965C37.0697 38.0565 37.1095 38.1101 37.1582 38.1545C37.2069 38.1989 37.2635 38.2331 37.3248 38.2551C37.3862 38.2772 37.451 38.2867 37.5157 38.2831ZM35.361 39.4877L34.8493 38.7941C34.7938 38.7187 34.7281 38.709 34.6521 38.767L34.3705 38.9834C34.3505 38.9988 34.3374 39.0208 34.334 39.0452C34.3306 39.0695 34.337 39.0944 34.352 39.1148L35.4 40.5311C35.4412 40.587 35.5005 40.629 35.5691 40.6506C35.6377 40.6722 35.7118 40.6724 35.7805 40.6511C35.8492 40.6298 35.9088 40.5881 35.9502 40.5323C35.9916 40.4766 36.0127 40.4097 36.0104 40.3417L35.9672 39.1245C35.9631 39.0182 35.9939 39.0066 36.0617 39.0935L36.6268 39.8374C36.6762 39.9012 36.7337 39.907 36.7974 39.8587L37.0666 39.6539C37.089 39.6368 37.1037 39.6124 37.1079 39.5856C37.1121 39.5587 37.1054 39.5314 37.0892 39.509L35.9569 37.9381C35.9282 37.8995 35.8932 37.8937 35.8521 37.9188L35.5131 38.1294C35.4802 38.1506 35.4638 38.1816 35.4638 38.2202L35.4925 39.4471C35.4946 39.5978 35.4514 39.6114 35.361 39.4877ZM17.327 39.9089C17.2618 39.9067 17.1978 39.8915 17.1394 39.8642C17.0809 39.837 17.0294 39.7984 16.9881 39.751C16.9469 39.7037 16.9169 39.6486 16.9002 39.5895C16.8835 39.5304 16.8805 39.4687 16.8914 39.4085C17.0044 38.7554 17.8901 38.5564 18.001 39.2945C18.003 39.3068 18.0076 39.3187 18.0146 39.3293C18.0215 39.34 18.0307 39.3493 18.0416 39.3567C18.0525 39.364 18.0648 39.3693 18.078 39.3722C18.0911 39.3752 18.1048 39.3757 18.1182 39.3737L18.4757 39.3196C18.5353 39.3099 18.56 39.279 18.5518 39.223C18.4017 38.0463 16.7619 37.8492 16.3489 39.0278C16.1043 39.7254 16.7989 40.589 17.5366 40.4944C17.6124 40.4833 17.6812 40.4462 17.7297 40.3903C17.7781 40.3344 17.8028 40.2635 17.799 40.1915C17.7952 40.1194 17.7631 40.0513 17.7089 40.0001C17.6548 39.949 17.5824 39.9186 17.5058 39.9147L17.327 39.9089ZM19.7642 40.4924V39.6461C19.7642 39.5746 19.7292 39.5225 19.6573 39.4935L19.2792 39.3389C19.2155 39.3138 19.1826 39.3331 19.1826 39.3988L19.2073 40.9929C19.2077 41.0072 19.2039 41.0214 19.1964 41.0339C19.1889 41.0464 19.1779 41.0569 19.1646 41.0641C19.1512 41.0714 19.1359 41.0752 19.1203 41.0753C19.1047 41.0753 19.0894 41.0715 19.0758 41.0644L18.8805 40.9581C18.8286 40.9294 18.7675 40.9188 18.708 40.9281C18.6485 40.9375 18.5945 40.9662 18.5553 41.0093C18.5161 41.0524 18.4942 41.1071 18.4936 41.1638C18.493 41.2204 18.5135 41.2755 18.5518 41.3194C19.1765 42.0478 20.5553 40.7185 21.0546 40.3243C21.0999 40.2876 21.0978 40.2548 21.0485 40.2239L20.7053 40.0075C20.684 39.994 20.6586 39.9873 20.6328 39.9883C20.6069 39.9894 20.582 39.9981 20.5615 40.0133L19.8731 40.5407C19.8011 40.5968 19.7642 40.5794 19.7642 40.4924ZM32.7718 40.5253L32.5437 40.0442C32.5371 40.0301 32.5274 40.0176 32.5151 40.0075C32.5029 39.9974 32.4885 39.9898 32.4729 39.9854C32.4572 39.981 32.4408 39.9798 32.4246 39.982C32.4085 39.9841 32.393 39.9895 32.3793 39.9978L32.0814 40.1813C32.0238 40.2161 32.0094 40.2625 32.0361 40.3224L32.8006 41.9164C32.8299 41.9835 32.8856 42.0373 32.9562 42.0665C33.0268 42.0957 33.1067 42.098 33.179 42.073C33.2514 42.048 33.3107 41.9976 33.3443 41.9323C33.378 41.8671 33.3834 41.7922 33.3595 41.7232L33.2157 41.2634C33.2082 41.2381 33.2092 41.2114 33.2185 41.1867C33.2278 41.1621 33.245 41.1407 33.2676 41.1255C33.2903 41.1103 33.3174 41.102 33.3452 41.1018C33.3731 41.1016 33.4003 41.1094 33.4232 41.1242L33.9904 41.4875C34.0221 41.5075 34.0592 41.5191 34.0978 41.5211C34.1364 41.5232 34.1752 41.5156 34.2103 41.4991L34.6274 41.2943C34.7199 41.2498 34.7219 41.2015 34.6315 41.1513L33.5999 40.5755C33.5321 40.5388 33.5095 40.4828 33.528 40.4113L33.7705 39.4664C33.789 39.3969 33.7602 39.3718 33.6883 39.3911C33.0348 39.5534 33.1191 40.0248 32.9403 40.5175C32.9346 40.5338 32.9237 40.5481 32.9092 40.5585C32.8947 40.5689 32.8771 40.5749 32.8589 40.5758C32.8406 40.5766 32.8226 40.5722 32.807 40.5632C32.7915 40.5542 32.7792 40.541 32.7718 40.5253ZM22.3842 41.1049L22.2897 40.7166C22.2827 40.6863 22.2678 40.6581 22.2462 40.6345C22.2247 40.6109 22.1973 40.5927 22.1664 40.5813L21.7924 40.4422C21.7728 40.435 21.7514 40.4332 21.7308 40.437C21.7102 40.4407 21.6911 40.4499 21.6758 40.4635C21.6605 40.4771 21.6497 40.4944 21.6445 40.5136C21.6393 40.5327 21.64 40.5529 21.6465 40.5716L21.9691 41.4972C21.9937 41.5686 21.9753 41.6285 21.9157 41.6788L21.1184 42.3241C21.0588 42.3724 21.0608 42.4188 21.1286 42.4594C21.4965 42.6796 21.7965 42.6217 22.0287 42.2835C22.0452 42.2597 22.0695 42.2415 22.098 42.2317C22.1264 42.222 22.1575 42.2212 22.1865 42.2295C22.2154 42.2378 22.2408 42.2547 22.2586 42.2777C22.2765 42.3007 22.286 42.3285 22.2855 42.357C22.2794 42.7801 22.5034 42.9888 22.9554 42.9811C23.0274 42.9791 23.052 42.9463 23.0315 42.8825L22.7047 41.8894C22.6821 41.8198 22.6986 41.7619 22.7561 41.7136L23.5144 41.0759C23.5945 41.0083 23.5843 40.9523 23.4877 40.9117C23.1157 40.7513 22.8178 40.8267 22.5958 41.1416C22.5831 41.1596 22.5651 41.1736 22.544 41.182C22.5229 41.1903 22.4997 41.1927 22.4772 41.1888C22.4546 41.1849 22.4338 41.1749 22.4173 41.16C22.4008 41.1451 22.3893 41.1259 22.3842 41.1049ZM30.2196 41.843C30.1579 41.5397 30.0737 41.2421 29.9648 40.9504C29.9381 40.8808 29.8867 40.8537 29.8086 40.8692L29.525 40.9252C29.5075 40.9286 29.4909 40.9353 29.4763 40.9449C29.4616 40.9546 29.4492 40.9669 29.4398 40.9812C29.4303 40.9955 29.4241 41.0114 29.4214 41.028C29.4188 41.0447 29.4198 41.0616 29.4243 41.0779L29.8703 42.7492C29.8892 42.8184 29.9314 42.8799 29.9906 42.9246C30.0499 42.9693 30.1229 42.9947 30.1988 42.9971C30.2747 42.9995 30.3494 42.9787 30.4117 42.9379C30.474 42.897 30.5205 42.8383 30.5443 42.7705L30.9162 41.6884C30.9676 41.5397 31.0107 41.5416 31.0457 41.6942L31.2553 42.5888C31.258 42.6014 31.2636 42.6133 31.2716 42.6237C31.2797 42.6341 31.2899 42.6428 31.3018 42.6491C31.3136 42.6555 31.3268 42.6595 31.3404 42.6608C31.354 42.662 31.3677 42.6606 31.3806 42.6565L31.7361 42.5425C31.8142 42.5173 31.843 42.4671 31.8224 42.3917L31.3642 40.7243C31.3452 40.658 31.3038 40.5993 31.2463 40.557C31.1888 40.5147 31.1182 40.4911 31.0452 40.4898C30.9722 40.4885 30.9007 40.5095 30.8415 40.5497C30.7822 40.5899 30.7385 40.6471 30.7169 40.7127L30.3552 41.8488C30.2997 42.0208 30.2545 42.0188 30.2196 41.843ZM25.1337 41.1281C25.1096 41.1248 25.0851 41.1286 25.0637 41.139C25.0423 41.1494 25.0251 41.1659 25.0145 41.1861L24.022 43.0641C23.9829 43.1395 24.0076 43.1839 24.0959 43.1975L24.4864 43.2554C24.505 43.2584 24.5241 43.2576 24.5424 43.2531C24.5607 43.2485 24.5778 43.2403 24.5926 43.229C24.6074 43.2177 24.6194 43.2035 24.6281 43.1874C24.6367 43.1713 24.6416 43.1537 24.6425 43.1356C24.6487 43.0603 24.6919 42.9965 24.772 42.9405C24.8213 42.9076 24.8768 42.8941 24.9384 42.8999L25.5118 42.9637C25.596 42.9733 25.6433 43.0158 25.6556 43.0951C25.7008 43.3945 25.9002 43.4854 26.2557 43.3675C26.3009 43.352 26.3152 43.3231 26.3009 43.2786L25.6597 41.3291C25.633 41.246 25.5714 41.1957 25.4789 41.1822L25.1337 41.1281ZM28.8387 42.2488C29.4469 41.0759 27.7989 41.0682 27.1434 41.2015C27.0735 41.2151 27.0427 41.2556 27.0489 41.3233L27.2276 43.2593C27.2338 43.3289 27.2728 43.3598 27.3468 43.352L27.7188 43.3134C27.7381 43.3113 27.7568 43.3055 27.7737 43.2964C27.7906 43.2873 27.8054 43.275 27.8171 43.2604C27.8288 43.2458 27.8373 43.229 27.8419 43.2113C27.8466 43.1935 27.8473 43.175 27.8441 43.1569L27.7845 42.8072C27.7825 42.7954 27.7829 42.7833 27.7858 42.7717C27.7888 42.76 27.7941 42.749 27.8015 42.7393C27.809 42.7296 27.8184 42.7214 27.8292 42.7152C27.8401 42.7089 27.8521 42.7047 27.8647 42.7028C28.2325 42.6507 28.662 42.5888 28.8387 42.2488Z" fill="white"/>
<path d="M10.4903 11.6934C17.3907 4.92692 27.6571 2.91747 36.5693 7.37305C38.7105 8.44347 42.1669 10.5321 41.7703 13.1116C41.76 13.1792 41.7292 13.1889 41.6799 13.1386C33.9328 5.09502 21.4142 4.45161 12.8432 11.7455C12.8123 11.7745 12.7733 11.788 12.7302 11.788L10.5314 11.7842C10.441 11.7842 10.4266 11.7533 10.4903 11.6934Z" fill="black"/>
<path d="M25.2329 12.1837C24.9688 12.1932 24.7106 12.0838 24.5152 11.8795C24.3198 11.6751 24.2032 11.3926 24.191 11.0941C24.1788 10.7955 24.272 10.5054 24.4502 10.2876C24.6283 10.0697 24.8768 9.942 25.1409 9.93246C25.405 9.92292 25.6632 10.0324 25.8586 10.2367C26.054 10.4411 26.1706 10.7236 26.1828 11.0221C26.195 11.3206 26.1018 11.6107 25.9236 11.8286C25.7455 12.0464 25.497 12.1742 25.2329 12.1837ZM25.2166 11.6654C25.3199 11.6587 25.4146 11.5913 25.4798 11.4778C25.5449 11.3643 25.5753 11.2141 25.5641 11.0602C25.5529 10.9063 25.5012 10.7613 25.4203 10.6572C25.3393 10.5531 25.2358 10.4983 25.1325 10.5049C25.0292 10.5115 24.9346 10.579 24.8694 10.6925C24.8042 10.806 24.7739 10.9562 24.785 11.1101C24.7962 11.264 24.8479 11.4089 24.9289 11.5131C25.0098 11.6172 25.1133 11.672 25.2166 11.6654Z" fill="black"/>
<path d="M27.7146 12.182C27.4472 12.1719 27.1958 12.0448 27.0157 11.8288C26.8355 11.6127 26.7414 11.3254 26.7541 11.0299C26.7603 10.8836 26.7926 10.7398 26.849 10.6065C26.9054 10.4733 26.9849 10.3533 27.083 10.2534C27.181 10.1535 27.2957 10.0756 27.4204 10.0242C27.5451 9.97288 27.6774 9.94902 27.8098 9.95402C28.0772 9.96412 28.3286 10.0912 28.5087 10.3072C28.6889 10.5233 28.783 10.8106 28.7703 11.1061C28.7641 11.2523 28.7318 11.3962 28.6754 11.5295C28.619 11.6627 28.5395 11.7827 28.4414 11.8826C28.3434 11.9825 28.2287 12.0604 28.104 12.1117C27.9793 12.1631 27.847 12.187 27.7146 12.182ZM27.7363 11.6377C27.8409 11.6407 27.9431 11.5844 28.0203 11.4815C28.0976 11.3785 28.1437 11.2372 28.1484 11.0887C28.1507 11.0151 28.1428 10.942 28.1251 10.8735C28.1074 10.805 28.0803 10.7424 28.0453 10.6894C28.0104 10.6364 27.9682 10.5939 27.9212 10.5644C27.8743 10.5349 27.8234 10.519 27.7716 10.5176C27.6671 10.5147 27.5649 10.5709 27.4876 10.6738C27.4103 10.7768 27.3643 10.9181 27.3596 11.0666C27.3573 11.1402 27.3652 11.2133 27.3829 11.2818C27.4005 11.3503 27.4276 11.4129 27.4626 11.4659C27.4976 11.5189 27.5398 11.5614 27.5867 11.5909C27.6337 11.6204 27.6845 11.6363 27.7363 11.6377Z" fill="black"/>
<path d="M30.0345 12.0722L30.6243 12.1437C30.6438 12.146 30.6626 12.152 30.6794 12.1615C30.6962 12.171 30.7107 12.1838 30.722 12.1989C30.7332 12.214 30.7409 12.2312 30.7446 12.2493C30.7484 12.2675 30.748 12.2861 30.7435 12.3041L30.6818 12.5514C30.6592 12.6384 30.6038 12.6712 30.5113 12.6461L29.1982 12.306C29.1448 12.2924 29.097 12.2639 29.0611 12.2243C29.0251 12.1848 29.0027 12.1359 28.9967 12.0842C28.9907 12.0325 29.0015 11.9803 29.0275 11.9344C29.0535 11.8885 29.0937 11.851 29.1427 11.8269L30.24 11.2897C30.2975 11.2618 30.3419 11.2148 30.3646 11.1578C30.3874 11.1008 30.3867 11.038 30.3629 10.9814C30.3391 10.9248 30.2938 10.8786 30.2358 10.8516C30.1778 10.8247 30.1112 10.819 30.0489 10.8356L29.7427 10.9168C29.7147 10.9245 29.6848 10.923 29.6579 10.9124C29.6309 10.9019 29.6087 10.883 29.5948 10.8588L29.4756 10.6482C29.4407 10.5864 29.4509 10.5342 29.5105 10.4917C30.6099 9.69374 31.8696 11.4192 30.0243 11.9602C30.0113 11.9644 30.0001 11.9725 29.9926 11.9834C29.9851 11.9942 29.9817 12.0071 29.9829 12.02C29.984 12.0329 29.9898 12.045 29.9991 12.0545C30.0085 12.0639 30.021 12.0702 30.0345 12.0722Z" fill="black"/>
<path d="M23.1079 12.0179C23.4018 11.9735 23.7881 11.6778 23.8929 12.1802C23.9114 12.2652 23.8744 12.3193 23.7861 12.3406L22.4894 12.671C22.429 12.6867 22.3648 12.6842 22.306 12.6636C22.2473 12.6431 22.1969 12.6057 22.162 12.5566C22.1272 12.5076 22.1097 12.4495 22.112 12.3906C22.1144 12.3317 22.1364 12.275 22.175 12.2285L22.8716 11.3803C22.9846 11.2431 22.999 11.0982 22.9148 10.9436C22.7668 10.6731 22.512 11.017 22.4236 11.1079C22.3795 11.1536 22.3193 11.1831 22.2541 11.1908C22.1888 11.1985 22.1228 11.184 22.0679 11.1499C22.013 11.1158 21.973 11.0644 21.9549 11.005C21.9369 10.9455 21.942 10.8819 21.9695 10.8258C22.4257 9.87706 24.3573 10.3794 23.0586 11.9426C23.0052 12.0063 23.0216 12.0314 23.1079 12.0179Z" fill="black"/>
<path d="M24.7855 11.1094C24.8087 11.4299 25.0019 11.6785 25.2171 11.6647C25.4322 11.6509 25.5878 11.3799 25.5645 11.0595C25.5413 10.739 25.3481 10.4904 25.1329 10.5042C24.9178 10.518 24.7622 10.789 24.7855 11.1094Z" fill="white"/>
<path d="M27.3591 11.0661C27.3493 11.3755 27.518 11.6312 27.7358 11.6372C27.9536 11.6433 28.1381 11.3975 28.1478 11.0882C28.1576 10.7788 27.989 10.5231 27.7712 10.5171C27.5534 10.511 27.3689 10.7568 27.3591 11.0661Z" fill="white"/>
<path d="M7.92991 19.7115C7.52098 21.1742 8.33267 21.8659 9.28821 22.9556C9.31904 22.9885 9.31082 23.0078 9.26355 23.0097C6.44831 23.2242 4.43243 21.5606 4.55778 18.9445C4.73656 15.1845 8.59981 13.1422 12.3172 13.3798C14.1152 13.4958 15.8968 13.7411 17.6579 14.1179C21.8767 15.0183 25.9516 16.0965 30.2874 16.9447C32.8808 17.4528 35.3837 17.6229 37.7941 17.4586C40.6566 17.2615 43.7431 15.3294 42.8964 12.2225C42.878 12.149 42.8923 12.1432 42.9396 12.2031C43.8314 13.3238 44.1828 14.5237 43.9938 15.8047C43.5006 19.1531 39.3764 20.3917 36.3577 20.4883C33.4212 20.5791 30.945 20.1984 27.9839 19.6188C23.1343 18.6682 17.6908 16.7476 12.4199 16.9311C10.5417 16.9968 8.4272 17.9301 7.92991 19.7115Z" fill="black"/>
<path d="M33.9366 24.962C34.7874 23.5979 36.5751 22.4386 38.2725 22.912C39.9637 23.3834 39.9164 25.0683 39.6555 26.4247C39.4417 27.5434 39.2178 28.6621 38.9856 29.777C38.5068 32.0627 41.3836 31.2396 41.6343 29.8659C41.9857 27.9298 42.3659 26.0015 42.7748 24.0829C42.7933 23.9998 42.7563 23.965 42.668 23.9747L41.8583 24.0693C41.7741 24.079 41.7391 24.0442 41.7535 23.965L42.0186 22.6318C42.0371 22.5449 42.0926 22.4985 42.1851 22.4888L43.0009 22.4096C43.0728 22.4038 43.1139 22.3671 43.1283 22.3014C43.6934 19.6524 44.8852 17.9714 48.0683 18.2168C48.1854 18.2265 48.1895 18.2535 48.0827 18.298C46.9196 18.7945 46.8312 20.8136 46.6258 21.8705C46.6093 21.9517 46.6442 21.9865 46.7326 21.9768L48.0683 21.828C48.0861 21.8262 48.1042 21.8284 48.121 21.8343C48.1378 21.8402 48.1529 21.8498 48.1651 21.8622C48.1772 21.8746 48.1862 21.8895 48.1911 21.9057C48.1961 21.9219 48.197 21.939 48.1937 21.9556L47.908 23.2675C47.8916 23.3467 47.8402 23.3912 47.7539 23.4008L46.4244 23.5573C46.3927 23.5608 46.363 23.5737 46.3394 23.5941C46.3158 23.6146 46.2995 23.6416 46.2929 23.6713C45.9147 25.4895 45.551 27.3135 45.1996 29.1413C45.0969 29.6746 45.212 30.1035 45.5428 30.43C45.5921 30.4784 45.6517 30.5054 45.7216 30.5151C46.3257 30.5962 46.8621 30.4552 47.3326 30.09C47.3471 30.0782 47.3652 30.0713 47.3843 30.0703C47.4034 30.0693 47.4222 30.0743 47.438 30.0844C47.4537 30.0946 47.4654 30.1094 47.4713 30.1265C47.4771 30.1436 47.4768 30.162 47.4703 30.1789C46.9134 31.7652 45.8038 32.625 44.1372 32.7583C42.9844 32.853 42.1501 32.5033 41.7679 31.4657C41.7631 31.4526 41.7547 31.441 41.7435 31.4321C41.7323 31.4231 41.7188 31.4171 41.7043 31.4148C41.6898 31.4124 41.6749 31.4137 41.6612 31.4186C41.6474 31.4235 41.6353 31.4317 41.6261 31.4425C39.7027 33.7688 34.5716 35.0518 35.5333 30.0629C35.7902 28.7297 36.0552 27.3985 36.3265 26.0672C36.4416 25.5069 36.4642 24.8983 35.7223 24.8654C34.662 24.819 33.8811 26.1831 33.7003 27.0256C33.2421 29.1761 32.7982 31.3324 32.3728 33.4906C32.3584 33.5582 32.3153 33.5969 32.2413 33.6065L29.0171 33.9949C28.9999 33.997 28.9823 33.9952 28.9659 33.9897C28.9495 33.9842 28.9347 33.9752 28.9227 33.9634C28.9107 33.9515 28.9019 33.9372 28.8969 33.9215C28.8918 33.9058 28.8908 33.8893 28.8938 33.8732L29.0048 33.2433C29.0233 33.1351 28.9904 33.1177 28.9041 33.193C28.6431 33.421 28.3781 33.6394 28.1109 33.8481C26.7012 34.9475 23.812 35.7648 23.0517 33.4925C23.0452 33.4738 23.0334 33.4572 23.0174 33.4445C23.0015 33.4318 22.9822 33.4234 22.9615 33.4204C22.9409 33.4174 22.9197 33.4199 22.9005 33.4275C22.8812 33.4351 22.8645 33.4476 22.8524 33.4636C21.8044 34.8335 19.248 36.4062 17.4582 35.3667C16.0978 34.5765 16.5212 32.7506 16.7575 31.6067C17.3678 28.6428 17.9658 25.6769 18.5494 22.7072C18.6439 22.2222 18.4733 21.9111 18.0356 21.7778C18.0181 21.7717 18.0032 21.7603 17.9933 21.7454C17.9834 21.7305 17.9791 21.713 17.981 21.6955C17.9828 21.678 17.9908 21.6616 18.0037 21.6489C18.0166 21.6362 18.0336 21.6278 18.0521 21.6252C18.7508 21.5517 19.4248 21.4822 20.0741 21.4165C21.6646 21.26 21.8619 22.9699 21.6646 23.9708C21.1324 26.6816 20.5899 29.3905 20.0392 32.0994C19.8666 32.9535 20.3289 33.6684 21.3523 33.3863C21.7838 33.2665 22.1989 32.9824 22.5976 32.5361C22.7989 32.31 22.9346 32.0202 23.0044 31.6686C23.3702 29.8407 23.7401 28.0129 24.1161 26.187C24.1737 25.9049 24.3607 24.8712 23.8367 24.8693C23.8051 24.8669 23.7756 24.8537 23.7536 24.8323C23.7317 24.8108 23.7189 24.7825 23.7176 24.7528C23.7164 24.723 23.7267 24.6939 23.7468 24.6709C23.7668 24.6478 23.7951 24.6325 23.8264 24.6277C24.5806 24.5698 25.2628 24.4944 25.8772 24.3998C28.4829 23.9998 26.8225 29.6958 26.6334 30.6967C26.4814 31.4927 26.2594 32.2038 26.9417 32.5786C27.6239 32.9535 28.6 32.2656 29.0336 31.8115C29.2411 31.5932 29.385 31.2918 29.4631 30.9073C29.8186 29.1355 30.1782 27.3618 30.5419 25.59C30.6796 24.9214 30.8563 24.3553 30.2336 24.0462C30.2131 24.0364 30.1966 24.0206 30.1867 24.0012C30.1769 23.9817 30.1742 23.9597 30.1791 23.9384C30.184 23.9171 30.1962 23.8978 30.2138 23.8835C30.2315 23.8691 30.2536 23.8604 30.2768 23.8587C31.592 23.766 33.5133 23.1013 33.803 24.9369C33.8215 25.0663 33.8667 25.0741 33.9366 24.962Z" fill="black"/>
<path d="M13.6144 25.7751L16.3166 25.4447C16.3311 25.4429 16.3458 25.4444 16.3596 25.449C16.3734 25.4536 16.3857 25.4612 16.3958 25.4712C16.4058 25.4812 16.4132 25.4933 16.4173 25.5065C16.4214 25.5197 16.4221 25.5336 16.4194 25.5471L16.1502 26.9073C16.1378 26.9749 16.0947 27.0136 16.0207 27.0213L13.263 27.315C13.1911 27.3227 13.15 27.3595 13.1356 27.4271L11.43 35.8127C11.4156 35.8919 11.3643 35.9383 11.278 35.9479L8.04967 36.3363C7.96953 36.346 7.93665 36.3131 7.95104 36.2378L9.61347 27.9468C9.63813 27.8232 9.5847 27.7671 9.45113 27.7807L8.69081 27.8579C8.61889 27.8657 8.59012 27.8367 8.6045 27.771L8.89014 26.405C8.90452 26.3412 8.94562 26.3064 9.01343 26.2987L9.88472 26.1982C9.90937 26.1955 9.93252 26.1854 9.95094 26.1695C9.96935 26.1535 9.98212 26.1325 9.98746 26.1093C10.4601 23.9221 10.606 20.3573 13.561 19.737C13.9226 19.6617 14.5391 19.596 15.4104 19.5438C15.5316 19.5361 15.546 19.5689 15.4536 19.6424C15.0528 19.9631 14.646 20.1641 14.5268 20.6374C14.2802 21.619 13.9432 23.3 13.5158 25.6785C13.5014 25.7538 13.5343 25.7847 13.6144 25.7751Z" fill="black"/>
<path d="M26.7119 23.3872C27.7188 23.0463 28.3088 22.1791 28.0297 21.4502C27.7506 20.7213 26.7081 20.4067 25.7012 20.7476C24.6942 21.0884 24.1042 21.9557 24.3833 22.6846C24.6624 23.4135 25.7049 23.7281 26.7119 23.3872Z" fill="black"/>
<path d="M10.1738 37.8301C16.1207 46.9442 28.7893 49.6898 37.9584 43.0103C41.0284 40.7728 43.2662 37.9094 44.6718 34.4179C44.7006 34.3503 44.7519 34.3078 44.828 34.2904C45.467 34.1513 46.0671 33.9214 46.626 33.5987C46.6979 33.5581 46.7205 33.5755 46.6959 33.6509C45.1958 38.3576 42.4299 42.0635 38.3961 44.7705C28.1071 51.6722 14.4357 48.3044 8.34284 38.0659C8.29763 37.9905 8.32024 37.948 8.41271 37.9383L10.0197 37.7587C10.0875 37.7509 10.1388 37.7741 10.1738 37.8301Z" fill="black"/>
<path d="M15.5991 38.2804C15.8874 38.2804 16.121 38.0606 16.121 37.7896C16.121 37.5186 15.8874 37.2988 15.5991 37.2988C15.3108 37.2988 15.0771 37.5186 15.0771 37.7896C15.0771 38.0606 15.3108 38.2804 15.5991 38.2804Z" fill="black"/>
<path d="M36.9912 37.8055C37.0088 38.0845 37.2435 38.2985 37.5154 38.2833C37.7873 38.2681 37.9934 38.0295 37.9758 37.7505C37.9581 37.4714 37.7234 37.2574 37.4515 37.2726C37.1796 37.2878 36.9735 37.5264 36.9912 37.8055Z" fill="black"/>
<path d="M35.4924 39.4473L35.4637 38.2204C35.4637 38.1818 35.4801 38.1508 35.513 38.1296L35.852 37.919C35.8931 37.8939 35.9281 37.8997 35.9568 37.9383L37.0891 39.5092C37.1053 39.5316 37.112 39.5589 37.1078 39.5858C37.1036 39.6126 37.0889 39.637 37.0665 39.6541L36.7973 39.8589C36.7336 39.9072 36.6761 39.9014 36.6267 39.8376L36.0616 39.0937C35.9938 39.0068 35.963 39.0184 35.9671 39.1247L36.0103 40.3419C36.0126 40.4099 35.9915 40.4768 35.9501 40.5326C35.9087 40.5883 35.8491 40.63 35.7804 40.6513C35.7117 40.6726 35.6376 40.6724 35.569 40.6508C35.5004 40.6292 35.4411 40.5872 35.3999 40.5313L34.3519 39.115C34.3369 39.0946 34.3305 39.0697 34.3339 39.0454C34.3373 39.021 34.3504 38.999 34.3704 38.9836L34.652 38.7672C34.728 38.7092 34.7937 38.7189 34.8492 38.7943L35.3609 39.4879C35.4513 39.6116 35.4945 39.598 35.4924 39.4473Z" fill="black"/>
<path d="M17.3274 39.9087L17.5062 39.9145C17.5828 39.9184 17.6552 39.9488 17.7093 39.9999C17.7635 40.051 17.7956 40.1192 17.7994 40.1912C17.8032 40.2633 17.7785 40.3341 17.7301 40.3901C17.6816 40.446 17.6128 40.4831 17.537 40.4941C16.7993 40.5888 16.1047 39.7251 16.3493 39.0276C16.7623 37.849 18.4021 38.0461 18.5521 39.2228C18.5604 39.2788 18.5357 39.3097 18.4761 39.3194L18.1185 39.3735C18.1052 39.3754 18.0915 39.3749 18.0784 39.372C18.0652 39.3691 18.0529 39.3638 18.042 39.3564C18.0311 39.3491 18.0219 39.3398 18.0149 39.3291C18.008 39.3184 18.0034 39.3066 18.0014 39.2942C17.8905 38.5562 17.0048 38.7552 16.8918 39.4082C16.8809 39.4685 16.8839 39.5302 16.9006 39.5893C16.9173 39.6483 16.9472 39.7034 16.9885 39.7508C17.0297 39.7982 17.0813 39.8368 17.1398 39.864C17.1982 39.8912 17.2622 39.9065 17.3274 39.9087Z" fill="black"/>
<path d="M19.8736 40.5405L20.562 40.0131C20.5825 39.9979 20.6075 39.9892 20.6333 39.9881C20.6592 39.9871 20.6846 39.9938 20.7059 40.0073L21.049 40.2237C21.0984 40.2546 21.1004 40.2874 21.0552 40.3241C20.5559 40.7183 19.177 42.0476 18.5523 41.3192C18.5141 41.2753 18.4935 41.2203 18.4942 41.1636C18.4948 41.1069 18.5166 41.0522 18.5558 41.0091C18.595 40.9661 18.6491 40.9373 18.7086 40.9279C18.768 40.9186 18.8291 40.9292 18.8811 40.9579L19.0763 41.0642C19.0899 41.0714 19.1053 41.0751 19.1209 41.0751C19.1365 41.075 19.1517 41.0712 19.1651 41.0639C19.1785 41.0567 19.1895 41.0462 19.197 41.0337C19.2045 41.0212 19.2082 41.007 19.2078 40.9927L19.1832 39.3986C19.1832 39.3329 19.216 39.3136 19.2797 39.3387L19.6579 39.4933C19.7298 39.5223 19.7647 39.5745 19.7647 39.6459V40.4922C19.7647 40.5792 19.8017 40.5966 19.8736 40.5405Z" fill="black"/>
<path d="M32.9406 40.5175C33.1193 40.0248 33.0351 39.5534 33.6885 39.3911C33.7605 39.3717 33.7892 39.3969 33.7707 39.4664L33.5283 40.4113C33.5098 40.4827 33.5324 40.5388 33.6002 40.5755L34.6318 41.1513C34.7222 41.2015 34.7201 41.2498 34.6276 41.2943L34.2105 41.4991C34.1755 41.5155 34.1367 41.5231 34.0981 41.5211C34.0594 41.5191 34.0224 41.5075 33.9906 41.4875L33.4235 41.1242C33.4005 41.1094 33.3733 41.1016 33.3455 41.1018C33.3176 41.102 33.2906 41.1103 33.2679 41.1255C33.2452 41.1407 33.2281 41.162 33.2188 41.1867C33.2095 41.2114 33.2085 41.2381 33.2159 41.2633L33.3598 41.7232C33.3837 41.7921 33.3782 41.8671 33.3446 41.9323C33.3109 41.9975 33.2517 42.048 33.1793 42.073C33.1069 42.098 33.027 42.0957 32.9565 42.0665C32.8859 42.0373 32.8301 41.9835 32.8008 41.9164L32.0364 40.3224C32.0097 40.2625 32.0241 40.2161 32.0816 40.1813L32.3796 39.9978C32.3933 39.9895 32.4087 39.9841 32.4249 39.982C32.441 39.9798 32.4575 39.981 32.4731 39.9854C32.4887 39.9898 32.5031 39.9973 32.5154 40.0075C32.5276 40.0176 32.5374 40.0301 32.544 40.0441L32.7721 40.5252C32.7794 40.5409 32.7917 40.5542 32.8073 40.5632C32.8228 40.5722 32.8409 40.5766 32.8591 40.5757C32.8774 40.5749 32.8949 40.5689 32.9094 40.5585C32.924 40.5481 32.9348 40.5338 32.9406 40.5175Z" fill="black"/>
<path d="M22.5959 41.1414C22.8179 40.8265 23.1158 40.7511 23.4878 40.9115C23.5843 40.9521 23.5946 41.0081 23.5145 41.0757L22.7562 41.7133C22.6987 41.7616 22.6822 41.8196 22.7048 41.8892L23.0316 42.8823C23.0521 42.9461 23.0275 42.9789 22.9555 42.9808C22.5035 42.9886 22.2795 42.7799 22.2856 42.3567C22.286 42.3283 22.2766 42.3004 22.2587 42.2774C22.2409 42.2544 22.2155 42.2375 22.1866 42.2292C22.1576 42.221 22.1265 42.2218 22.0981 42.2315C22.0696 42.2413 22.0453 42.2594 22.0288 42.2833C21.7966 42.6215 21.4965 42.6794 21.1287 42.4591C21.0609 42.4186 21.0588 42.3722 21.1184 42.3239L21.9157 41.6786C21.9753 41.6283 21.9938 41.5684 21.9692 41.4969L21.6466 40.5714C21.6401 40.5526 21.6394 40.5325 21.6446 40.5133C21.6498 40.4942 21.6606 40.4768 21.6759 40.4633C21.6912 40.4497 21.7103 40.4405 21.7309 40.4367C21.7515 40.433 21.7729 40.4348 21.7925 40.442L22.1664 40.5811C22.1974 40.5924 22.2248 40.6107 22.2463 40.6343C22.2678 40.6579 22.2828 40.6861 22.2897 40.7163L22.3843 41.1047C22.3893 41.1257 22.4009 41.1448 22.4174 41.1598C22.4339 41.1747 22.4547 41.1847 22.4772 41.1886C22.4998 41.1925 22.523 41.1901 22.5441 41.1817C22.5652 41.1733 22.5832 41.1593 22.5959 41.1414Z" fill="black"/>
<path d="M30.3556 41.8486L30.7173 40.7125C30.7389 40.6469 30.7827 40.5897 30.8419 40.5495C30.9011 40.5093 30.9726 40.4883 31.0456 40.4896C31.1186 40.4909 31.1892 40.5144 31.2467 40.5567C31.3043 40.599 31.3456 40.6577 31.3646 40.7241L31.8228 42.3915C31.8434 42.4669 31.8146 42.5171 31.7365 42.5422L31.381 42.6562C31.3681 42.6603 31.3544 42.6618 31.3408 42.6605C31.3272 42.6593 31.314 42.6553 31.3022 42.6489C31.2903 42.6425 31.2801 42.6338 31.2721 42.6234C31.264 42.613 31.2585 42.6012 31.2557 42.5886L31.0461 41.694C31.0112 41.5414 30.968 41.5394 30.9166 41.6882L30.5447 42.7702C30.5209 42.838 30.4744 42.8968 30.4121 42.9376C30.3498 42.9785 30.2751 42.9993 30.1992 42.9969C30.1233 42.9945 30.0503 42.9691 29.991 42.9244C29.9318 42.8797 29.8896 42.8181 29.8707 42.749L29.4248 41.0776C29.4202 41.0614 29.4192 41.0444 29.4219 41.0278C29.4245 41.0112 29.4307 40.9952 29.4402 40.9809C29.4496 40.9667 29.462 40.9543 29.4767 40.9447C29.4913 40.9351 29.5079 40.9284 29.5254 40.925L29.809 40.869C29.8871 40.8535 29.9385 40.8806 29.9652 40.9501C30.0741 41.2419 30.1584 41.5394 30.22 41.8428C30.2549 42.0186 30.3001 42.0205 30.3556 41.8486Z" fill="black"/>
<path d="M25.1341 41.1279L25.4793 41.182C25.5718 41.1955 25.6334 41.2457 25.6601 41.3288L26.3012 43.2784C26.3156 43.3228 26.3012 43.3518 26.256 43.3673C25.9005 43.4851 25.7012 43.3943 25.656 43.0948C25.6437 43.0156 25.5964 42.9731 25.5122 42.9634L24.9388 42.8997C24.8772 42.8939 24.8217 42.9074 24.7724 42.9402C24.6922 42.9963 24.6491 43.06 24.6429 43.1354C24.642 43.1534 24.637 43.1711 24.6284 43.1872C24.6198 43.2033 24.6077 43.2174 24.593 43.2288C24.5782 43.2401 24.5611 43.2483 24.5428 43.2528C24.5245 43.2574 24.5054 43.2582 24.4868 43.2552L24.0963 43.1972C24.008 43.1837 23.9833 43.1393 24.0223 43.0639L25.0149 41.1858C25.0254 41.1657 25.0427 41.1492 25.0641 41.1388C25.0855 41.1284 25.11 41.1246 25.1341 41.1279ZM25.1197 42.0283C25.0395 42.2041 25.0293 42.3413 25.093 42.4417C25.1152 42.4731 25.1488 42.4957 25.1875 42.5054C25.2263 42.515 25.2674 42.5111 25.3032 42.4942C25.3391 42.4774 25.3671 42.4488 25.3821 42.4139C25.3972 42.379 25.3981 42.3401 25.3848 42.3046L25.2656 42.0302C25.2183 41.922 25.171 41.922 25.1197 42.0283Z" fill="black"/>
<path d="M27.1436 41.2013C27.7992 41.068 29.4472 41.0758 28.8389 42.2486C28.6622 42.5886 28.2327 42.6505 27.8649 42.7026C27.8524 42.7045 27.8403 42.7087 27.8295 42.715C27.8186 42.7212 27.8092 42.7295 27.8018 42.7392C27.7943 42.7488 27.789 42.7598 27.7861 42.7715C27.7832 42.7831 27.7827 42.7952 27.7848 42.807L27.8444 43.1567C27.8476 43.1748 27.8468 43.1933 27.8422 43.2111C27.8375 43.2289 27.8291 43.2456 27.8174 43.2602C27.8056 43.2749 27.7909 43.2871 27.774 43.2962C27.7571 43.3053 27.7384 43.3111 27.719 43.3132L27.3471 43.3518C27.2731 43.3596 27.2341 43.3287 27.2279 43.2591L27.0491 41.3231C27.0429 41.2554 27.0738 41.2149 27.1436 41.2013ZM27.7293 41.7385L27.7211 42.1133C27.7208 42.127 27.7234 42.1406 27.7287 42.1534C27.734 42.1662 27.742 42.1778 27.7521 42.1877C27.7622 42.1975 27.7743 42.2054 27.7877 42.2109C27.801 42.2164 27.8154 42.2193 27.83 42.2196L27.8937 42.2215C27.9508 42.2227 28.0076 42.2171 28.0606 42.2049C28.1137 42.1927 28.1621 42.1743 28.2029 42.1506C28.2438 42.1269 28.2764 42.0984 28.2988 42.0668C28.3212 42.0352 28.3329 42.0011 28.3334 41.9665V41.9085C28.3345 41.8391 28.2901 41.7716 28.21 41.7209C28.1299 41.6702 28.0206 41.6404 27.906 41.638L27.8423 41.6361C27.8277 41.6358 27.8133 41.6383 27.7997 41.6433C27.7861 41.6483 27.7737 41.6558 27.7632 41.6653C27.7527 41.6748 27.7443 41.6861 27.7385 41.6987C27.7327 41.7113 27.7296 41.7248 27.7293 41.7385Z" fill="black"/>
<path d="M27.7289 41.7385C27.7292 41.7248 27.7323 41.7113 27.7381 41.6988C27.744 41.6862 27.7524 41.6749 27.7628 41.6654C27.7733 41.6559 27.7857 41.6484 27.7992 41.6434C27.8128 41.6384 27.8273 41.636 27.8418 41.6362L27.9054 41.6382C28.0199 41.6406 28.1291 41.6704 28.2091 41.721C28.2891 41.7716 28.3334 41.839 28.3324 41.9084V41.9663C28.3319 42.0008 28.3201 42.0349 28.2977 42.0665C28.2754 42.098 28.2428 42.1264 28.202 42.1501C28.1612 42.1738 28.1129 42.1922 28.0599 42.2044C28.0069 42.2166 27.9502 42.2222 27.8931 42.221L27.8295 42.2191C27.8149 42.2188 27.8006 42.2159 27.7872 42.2104C27.7739 42.2049 27.7618 42.197 27.7517 42.1872C27.7416 42.1773 27.7337 42.1657 27.7284 42.153C27.723 42.1402 27.7205 42.1266 27.7207 42.1129L27.7289 41.7385Z" fill="white"/>
<path d="M25.1199 42.0281C25.1712 41.922 25.2184 41.922 25.2656 42.03L25.3846 42.3041C25.3979 42.3395 25.397 42.3784 25.382 42.4133C25.367 42.4482 25.339 42.4767 25.3032 42.4935C25.2674 42.5103 25.2263 42.5143 25.1877 42.5046C25.149 42.495 25.1154 42.4724 25.0932 42.4411C25.0296 42.3407 25.0398 42.2037 25.1199 42.0281Z" fill="white"/>
</svg>
