<svg width="71" height="29" viewBox="0 0 71 29" fill="none" xmlns="http://www.w3.org/2000/svg">
<path d="M29.5542 0.837972C26.3502 0.911889 24.1058 3.12447 23.0537 4.43492C23.0537 4.43492 23.0076 4.49071 22.9706 4.53717C22.9268 4.52407 22.8836 4.50856 22.8414 4.49071C20.6437 3.69135 18.16 3.54263 15.6576 4.05389C13.2483 4.55495 9.79423 5.81048 7.28192 7.84602C2.87822 11.4243 0.560508 15.737 0.754417 19.9938C0.865246 22.4577 1.99175 24.5852 4.00473 26.1467C7.31036 28.7213 12.7674 28.1262 14.9654 27.7545C17.4215 27.3364 55.8614 20.4026 60.9124 19.4267C65.5015 18.5438 69.8689 16.973 70.7466 11.5172C70.8017 11.1949 70.8295 10.8685 70.8296 10.5414V10.5035C70.8296 9.16597 70.4134 7.91958 69.6939 7.07394C68.3458 5.5032 66.0834 5.31735 64.5045 5.30802C62.3069 5.29869 38.7241 5.75416 36.0465 5.80995H35.8711C35.8617 5.72636 35.8526 5.64258 35.8526 5.64258C35.7217 4.58723 35.2809 3.59627 34.5875 2.79854C33.774 1.86964 32.2413 0.772855 29.5542 0.837972Z" fill="#151515"/>
<path d="M29.5273 8.75645C30.8659 8.70066 32.1771 8.09665 32.2788 6.69311C32.3527 5.75436 31.6325 4.78781 30.1643 4.70439C29.423 4.63763 28.682 4.83475 28.0683 5.26193C27.6586 5.57241 27.3707 6.0203 27.2559 6.52591C27.1081 7.1301 27.182 7.63185 27.4682 8.02186C27.8562 8.53312 28.5947 8.79341 29.5273 8.75645Z" fill="white"/>
<path d="M67.8834 11.0431C67.6895 11.4706 67.2925 11.9167 66.9414 11.9725L66.7853 12.0097C66.7853 12.0097 66.9241 11.0618 66.9331 10.7828C66.9608 9.48171 66.6556 8.12533 64.6437 8.2362C63.4065 8.31047 61.606 9.38861 61.3288 11.7209V11.7302L61.3196 11.7395C61.3202 11.7555 61.3171 11.7715 61.3104 11.786C61.0055 12.5945 60.4424 13.7377 60.0362 13.7842C59.9961 13.7892 59.9555 13.7851 59.9171 13.7723C59.8788 13.7594 59.8438 13.7381 59.8145 13.7099C59.7756 13.666 59.7457 13.6145 59.7266 13.5587C59.7076 13.5028 59.6997 13.4437 59.7035 13.3847C59.7445 13.0032 59.8218 12.6266 59.9342 12.2601C60.1078 11.6204 60.2314 10.9678 60.3038 10.3083C60.4516 8.71913 59.4818 8.40304 58.4753 8.47802C57.8756 8.53701 57.3098 8.78756 56.8594 9.19361L56.4988 9.60261C56.4988 9.60261 56.6651 8.82191 56.7113 8.60808C56.4249 8.6174 54.643 8.68235 54.4583 8.68235L53.6642 11.9074C53.3867 12.2791 53.0086 12.5859 52.6855 12.6695L52.5294 12.7066L52.5108 12.5392C52.4997 12.3732 52.4749 12.2084 52.437 12.0465C52.3908 11.6841 52.0767 10.4479 50.876 10.5505C47.7826 10.8108 47.8754 14.6677 49.7217 14.1195L49.9342 14.0544L49.8971 14.2867C49.6478 15.8203 49.0016 16.6288 48.1058 16.7495C48.0407 16.7582 47.9745 16.7519 47.9121 16.7309C47.8498 16.71 47.793 16.675 47.7459 16.6286C47.6589 16.5256 47.5935 16.4056 47.5537 16.2761C47.514 16.1465 47.5006 16.0101 47.5145 15.8752C47.5331 15.1223 49.0195 8.85816 49.0195 8.85816C49.0195 8.85816 46.3417 8.96041 46.1478 8.96974C46.009 9.54594 45.4193 12.0368 45.4193 12.0368L45.3269 12.362C45.2299 12.6891 45.1497 13.021 45.0866 13.3565V13.3761L45.0774 13.3854C45.0681 13.4041 45.0681 13.4225 45.0589 13.4319C44.6066 14.6123 43.8217 15.8947 43.2123 15.9598C43.1571 15.9695 43.1004 15.9653 43.0472 15.9475C42.994 15.9296 42.946 15.8988 42.9073 15.8576C42.8636 15.8105 42.8296 15.755 42.8074 15.6943C42.7852 15.6336 42.7752 15.569 42.7781 15.5044V15.495L42.8335 14.9847C42.8335 14.9847 44.357 9.38033 44.468 9.00864C44.1263 9.01796 41.1993 9.07375 41.1993 9.07375L40.9129 10.0961C40.839 9.2596 39.0939 8.14433 37.7826 9.33405C36.3977 10.5887 36.0189 12.4753 35.8068 14.3342L35.7882 14.4085C35.4934 16.6483 34.9756 18.1817 33.4336 18.3769C33.131 18.441 32.8161 18.4017 32.5377 18.2653C32.9831 17.9541 33.363 17.556 33.6552 17.0943C34.2276 16.1371 33.9692 15.3006 33.3689 14.9009C32.1685 14.1109 30.8574 15.0769 30.6268 16.3043C30.5176 16.9138 30.6432 17.5425 30.9776 18.0608C30.5614 18.3025 30.2296 18.5628 29.6572 18.637C29.514 18.6558 29.3685 18.6403 29.2323 18.592C29.096 18.5436 28.9728 18.4635 28.8724 18.3583C28.5307 17.8936 28.9924 16.3972 29.0571 16.202C29.0571 16.202 31.1807 9.85428 31.3008 9.46393C30.9315 9.48259 27.0256 9.61264 26.8317 9.62232C26.7024 10.022 26.2038 11.5741 25.696 13.0053C24.6987 15.8036 21.7992 19.6319 18.8075 20.4126C17.2193 20.8308 15.9728 20.7565 15.188 20.2639C14.1168 19.5951 13.4981 18.0054 13.9137 15.7749C14.0797 14.7081 14.4061 13.6735 14.8817 12.7073C17.3841 7.35395 21.4099 8.56214 21.1603 8.97115C20.8949 9.06549 20.6384 9.1837 20.3938 9.32437C19.7474 9.66826 18.7133 10.6813 18.6768 11.9359C18.649 12.7444 18.8707 13.3951 19.3046 13.8226C19.7294 14.2407 20.3572 14.4359 21.0682 14.371C22.6564 14.2223 23.9491 13.0234 24.0046 11.2383C24.0323 10.2717 23.7645 9.48171 23.2104 8.89618C22.3147 7.95743 21.2713 7.49281 18.9437 7.55863C15.3333 7.66088 9.86692 10.254 8.2971 15.9887C7.77087 17.9218 8.46325 20.2639 9.61751 21.3234C11.2149 22.8017 13.2001 23.3401 16.6813 22.6803C19.7838 22.0948 22.323 19.9665 24.1976 17.736C24.1991 17.7703 24.196 17.8047 24.1884 17.8382C23.7453 19.4739 24.3454 21.2211 27.0693 20.8681C28.205 20.7194 30.1994 20.0687 31.5939 18.9721C32.2309 19.5299 33.339 19.8644 34.5944 19.6786C35.1118 19.6043 36.432 19.2511 37.595 17.5688C38.509 16.2488 38.9707 13.6652 39.2292 12.2714C39.3492 11.6202 39.4231 11.1932 39.524 11.0167C39.5961 10.8126 39.7412 10.6435 39.9304 10.5428C40.4198 10.3383 40.6691 10.8122 40.5766 11.1748C40.4845 11.528 39.9765 13.303 39.9765 13.3124L39.8841 13.5911C39.5892 14.4554 39.2468 15.4407 39.2193 16.4815C39.2007 17.2435 39.3946 17.8477 39.7916 18.2194C40.1609 18.5633 40.6875 18.7027 41.3059 18.6098C43.017 18.3567 44.2356 16.6103 44.8088 15.5971L44.8919 15.4484L45.0029 15.2439L45.0674 15.6249C45.3352 17.1399 46.5264 17.7532 48.3177 17.4838C50.6352 17.1399 52.0294 15.9317 52.4545 13.8312L52.4727 13.7383L52.5559 13.7105C52.7806 13.625 52.9944 13.5128 53.193 13.3761L53.3683 13.2552L52.546 16.6288C52.8785 16.5823 55.0485 16.2106 55.2238 16.192C55.27 15.9875 56.2211 11.8977 56.2211 11.8977C56.3875 11.1913 56.8398 9.84372 57.3568 9.80659C57.4082 9.80464 57.4594 9.81355 57.5071 9.83276C57.5549 9.85197 57.5982 9.88106 57.6343 9.91817C57.757 10.0689 57.8167 10.2624 57.8007 10.4572C57.759 10.9766 57.6535 11.4887 57.4867 11.9815C57.2591 12.7617 57.1015 13.5611 57.0158 14.3701C56.8864 15.7921 58.0776 15.7828 58.4285 15.727C59.2687 15.6063 60.3862 15.1601 61.3373 13.0596L61.3835 13.2828C61.4837 13.8211 61.7864 14.2987 62.2276 14.6144C62.6688 14.9301 63.2138 15.0592 63.7471 14.9743C65.0861 14.7698 66.0001 14.0355 66.5082 12.8272L66.5449 12.7436L66.628 12.7342C67.1544 12.6784 67.8745 12.0655 68.0594 11.3493C67.994 11.3127 67.985 11.1734 67.8834 11.0431ZM32.4167 15.5322C32.8968 15.5508 33.0907 15.849 32.8229 16.4429C32.6937 16.731 32.3149 17.1679 31.8256 17.5395C31.2253 16.5823 31.8162 15.5042 32.4167 15.5322ZM50.2008 12.9762C50.1083 13.1063 49.9233 13.1901 49.619 13.2458C49.3051 13.3016 49.222 13.1249 49.2127 13.0507C49.1481 12.7719 49.4529 12.3164 49.7115 12.1957C49.7705 12.1643 49.8367 12.1495 49.9032 12.1528C49.9698 12.156 50.0342 12.1773 50.0899 12.2144C50.3022 12.4651 50.2008 12.9762 50.2008 12.9762ZM64.9378 12.8368C64.7439 13.4224 64.4851 14.0544 63.9681 14.1195C63.8922 14.1339 63.8141 14.1314 63.7392 14.1121C63.6643 14.0929 63.5945 14.0573 63.5345 14.0079C63.3591 13.8495 63.2853 13.7011 63.2946 13.1714C63.3224 11.9261 63.9686 8.81258 64.8459 8.77527C64.9065 8.77322 64.9668 8.78463 65.0226 8.8087C65.0785 8.83278 65.1284 8.86894 65.169 8.91466C65.3536 9.11916 65.4274 9.50951 65.3815 9.97413L65.3721 10.0299C65.3721 10.0299 64.4581 10.0671 64.3564 11.4426C64.3434 11.6841 64.3949 11.9246 64.5054 12.1389C64.6158 12.3532 64.7812 12.5333 64.9841 12.6601L64.9378 12.8368ZM65.187 11.9261C64.8922 11.7402 64.9007 11.1918 65.067 10.9967C65.0977 10.9536 65.1415 10.922 65.1917 10.9069C65.2419 10.8918 65.2957 10.8939 65.3445 10.9131C65.3286 11.2555 65.2757 11.5952 65.187 11.9261Z" fill="white"/>
</svg>
