<svg width="69" height="12" viewBox="0 0 69 12" fill="none" xmlns="http://www.w3.org/2000/svg">
<g clip-path="url(#clip0_211_1618)">
<path d="M5.22239 10.0828C5.03055 10.0732 4.83696 10.0714 4.64337 10.0767C4.61446 10.0775 4.58993 10.0889 4.57066 10.1108C4.34378 10.3762 3.4494 11.6491 3.02104 11.141C2.88439 10.978 2.95184 10.0495 2.91855 9.79459C2.91644 9.78024 2.91027 9.76682 2.90079 9.75594C2.89131 9.74506 2.87892 9.73719 2.86512 9.73327C1.4942 9.35222 0.825825 8.20468 0.668147 6.85041C0.472803 5.16851 0.493826 2.74904 2.12491 1.80386C3.46955 1.02423 5.45803 1.01109 6.95947 1.22483C8.20074 1.40265 9.40522 1.92562 9.86249 3.16251C10.3898 4.59036 10.4047 6.59637 9.88351 8.03123C9.22389 9.8489 6.90691 10.1678 5.22239 10.0828ZM1.99439 2.93388C1.43025 3.67233 1.34528 4.75943 1.35317 5.66695C1.36456 6.94676 1.51172 8.44995 2.92118 8.97292C3.14456 9.05526 3.24354 9.18753 3.23916 9.41704C3.22953 9.88219 3.22077 10.357 3.21288 10.8414C3.21253 10.8572 3.2159 10.8729 3.22275 10.8874C3.22961 10.902 3.23981 10.915 3.25269 10.9258C3.26558 10.9365 3.28085 10.9447 3.29754 10.9498C3.31422 10.9548 3.33194 10.9567 3.34954 10.9553C3.50021 10.943 4.62672 9.56508 4.81331 9.35572C4.83258 9.33382 4.85711 9.32419 4.88689 9.32506C5.92581 9.36273 7.16095 9.30054 8.12278 8.8713C9.01453 8.47448 9.38858 7.56784 9.46829 6.6428C9.59356 5.18253 9.64349 2.72539 7.85035 2.1744C6.36205 1.71713 3.11477 1.47011 1.99439 2.93388Z" fill="black"/>
<path d="M27.7376 8.8169C27.7753 8.86157 27.7656 8.88347 27.7069 8.88347L26.1451 8.88085C26.117 8.88085 26.0925 8.87121 26.0706 8.85282C26.0242 8.81252 25.9813 8.76872 25.9418 8.72142C25.5091 8.1967 25.0816 7.66761 24.6603 7.13413C24.5595 7.00711 24.4544 6.89762 24.3432 6.80564C24.3371 6.8004 24.3297 6.79707 24.3218 6.79605C24.3139 6.79503 24.3059 6.79636 24.2987 6.79988C24.2914 6.8034 24.2853 6.80896 24.2811 6.81589C24.2769 6.82282 24.2747 6.83082 24.2748 6.83893L24.3116 8.82128C24.3117 8.83033 24.3101 8.83931 24.3067 8.8477C24.3033 8.85609 24.2983 8.86372 24.2919 8.87016C24.2856 8.8766 24.278 8.88171 24.2697 8.8852C24.2613 8.88869 24.2523 8.89048 24.2433 8.89048L23.1054 8.88698C23.0712 8.88698 23.0537 8.86946 23.0537 8.83442L23.0546 1.77573C23.0546 1.74683 23.0695 1.73193 23.0984 1.73193H24.2179C24.2783 1.73193 24.3081 1.76172 24.3081 1.82216L24.288 5.28405C24.2878 5.29332 24.2905 5.30241 24.2958 5.31001C24.3012 5.31761 24.3087 5.32333 24.3175 5.32635C24.3263 5.32937 24.3358 5.32953 24.3446 5.32681C24.3535 5.32409 24.3613 5.31863 24.3668 5.31121L25.6948 3.60304C25.7342 3.55311 25.7859 3.5277 25.8499 3.5277H27.346C27.3567 3.52773 27.3671 3.53078 27.3761 3.53651C27.3851 3.54224 27.3922 3.55041 27.3967 3.56006C27.4012 3.56971 27.4029 3.58044 27.4015 3.591C27.4001 3.60156 27.3958 3.61151 27.389 3.61968L25.39 6.01813C25.3733 6.03828 25.3733 6.05842 25.39 6.07857L27.7376 8.8169Z" fill="black"/>
<path d="M14.0534 6.83555V8.82579C14.0534 8.85469 14.0394 8.86871 14.0105 8.86871L12.8542 8.87397C12.8069 8.87484 12.7832 8.85119 12.7832 8.80389V2.25765C12.7832 2.2348 12.7922 2.21288 12.8083 2.19664C12.8244 2.1804 12.8462 2.17116 12.869 2.17093C13.7161 2.1648 14.9075 2.06143 15.6284 2.30583C16.7497 2.68513 17.3795 3.89312 17.1106 5.03365C16.9862 5.56012 16.6559 6.00336 16.26 6.3669C16.2524 6.37379 16.2477 6.38327 16.2467 6.39347C16.2457 6.40368 16.2486 6.41388 16.2547 6.42208L18.0155 8.8179C18.0209 8.82512 18.0242 8.83371 18.0249 8.8427C18.0257 8.85169 18.0239 8.86072 18.0198 8.86875C18.0157 8.87679 18.0094 8.88351 18.0017 8.88814C17.994 8.89278 17.9851 8.89516 17.976 8.89499L16.6069 8.87659C16.5689 8.87603 16.5316 8.86682 16.4978 8.84966C16.4639 8.83251 16.4344 8.80787 16.4115 8.77761C15.9657 8.18719 15.518 7.58277 15.0695 6.96344C14.8812 6.7024 14.3863 6.78474 14.0954 6.79175C14.0674 6.79263 14.0534 6.80752 14.0534 6.83555ZM14.0586 3.50943L14.0551 5.48916C14.0551 5.50426 14.0611 5.51874 14.0718 5.52942C14.0825 5.5401 14.097 5.5461 14.1121 5.5461L14.8374 5.54785C14.9783 5.54809 15.1179 5.52161 15.2482 5.46993C15.3785 5.41824 15.4969 5.34236 15.5967 5.24662C15.6965 5.15088 15.7758 5.03715 15.8299 4.91193C15.884 4.78671 15.912 4.65245 15.9122 4.51682V4.48879C15.9127 4.21489 15.8 3.95202 15.5991 3.75801C15.3982 3.564 15.1255 3.45473 14.8409 3.45425L14.1156 3.45249C14.1081 3.45249 14.1007 3.45397 14.0938 3.45683C14.0869 3.45969 14.0806 3.46388 14.0753 3.46917C14.07 3.47446 14.0658 3.48074 14.063 3.48764C14.0601 3.49455 14.0586 3.50196 14.0586 3.50943Z" fill="black"/>
<path d="M33.126 4.81926H32.5689C32.5321 4.81926 32.5137 4.80086 32.5137 4.76407L32.5163 3.57799C32.5163 3.54383 32.5329 3.52718 32.5671 3.52718H33.1269C33.1558 3.52718 33.1707 3.51317 33.1707 3.48426L33.1812 2.22196C33.1812 2.1913 33.1969 2.17554 33.2285 2.17554L34.3532 2.18955C34.3652 2.18978 34.3765 2.19459 34.3849 2.20294C34.3932 2.2113 34.3979 2.22253 34.3979 2.23423V3.48251C34.3979 3.48872 34.3992 3.49487 34.4016 3.50061C34.404 3.50635 34.4076 3.51156 34.412 3.51596C34.4165 3.52035 34.4218 3.52383 34.4277 3.52621C34.4335 3.52859 34.4398 3.52981 34.4461 3.52981L35.3694 3.52193C35.4079 3.52105 35.4272 3.54032 35.4263 3.57887L35.4106 4.76582C35.4103 4.78008 35.4044 4.79367 35.3941 4.80367C35.3838 4.81367 35.3699 4.81927 35.3554 4.81926H34.4435C34.4146 4.81926 34.3997 4.83415 34.3997 4.86306C34.3962 6.03513 34.3953 6.77271 34.3979 7.07492C34.4023 7.50591 34.6178 7.73191 35.0453 7.75293C35.0738 7.75406 35.1022 7.74642 35.1267 7.73103L35.2967 7.62504C35.3221 7.60927 35.344 7.61278 35.3624 7.63643L36.1052 8.59388C36.1135 8.60462 36.1193 8.61706 36.1222 8.63031C36.1251 8.64356 36.1251 8.65729 36.1221 8.67052C36.1191 8.68375 36.1132 8.69615 36.1048 8.70682C36.0964 8.7175 36.0858 8.7262 36.0737 8.73229C35.2003 9.17729 34.1991 9.12122 33.571 8.33459C33.3091 8.00609 33.1768 7.62767 33.1759 7.20106C33.1733 6.42231 33.1715 5.64269 33.1707 4.86306C33.1707 4.83415 33.1558 4.81926 33.126 4.81926Z" fill="black"/>
<path d="M50.01 6.51502C50.0932 6.41778 50.1519 6.31792 50.187 6.21631C50.7669 4.54755 51.1891 3.38863 51.4545 2.7404C51.522 2.57484 51.67 2.47322 51.8969 2.43731C52.7738 2.29802 52.85 3.06451 52.61 3.67332C51.9976 5.22995 51.3862 6.78657 50.7765 8.34407C50.6828 8.58146 50.5216 8.85652 50.2571 8.945C49.6377 9.15173 49.438 8.72775 49.233 8.21618C48.6023 6.64379 47.9734 5.07227 47.3462 3.50075C46.9476 2.503 48.2563 1.94413 48.6356 2.89107C48.9851 3.76267 49.4275 4.96715 49.9627 6.50538C49.9741 6.53604 49.9899 6.53867 50.01 6.51502Z" fill="black"/>
<path d="M56.588 4.3218C57.5621 3.64992 58.8042 4.00557 59.3999 4.97967C59.8379 5.69535 59.9754 6.74741 59.6443 7.5393C59.2326 8.52478 58.2646 9.21768 57.1688 8.95839C56.9252 8.90058 56.6887 8.70961 56.425 8.6115C56.3944 8.60011 56.3716 8.60975 56.3576 8.63866C55.9906 9.39463 55.1058 8.93474 55.1014 8.19628C55.0918 6.39789 55.0909 4.87542 55.1006 3.6289C55.1041 3.15674 55.0778 2.82212 55.3651 2.56633C55.6734 2.29302 56.1912 2.38412 56.3812 2.74153C56.567 3.08929 56.4916 3.82599 56.5258 4.29202C56.5293 4.33845 56.5503 4.34808 56.588 4.3218ZM57.4052 7.80627C57.6786 7.81104 57.9432 7.67766 58.1408 7.43548C58.3384 7.19329 58.4529 6.86214 58.4589 6.51487C58.465 6.16759 58.3622 5.83265 58.1731 5.58371C57.9841 5.33478 57.7243 5.19225 57.4509 5.18748C57.1775 5.18271 56.9129 5.31608 56.7153 5.55827C56.5177 5.80045 56.4032 6.13161 56.3972 6.47888C56.3911 6.82615 56.4939 7.1611 56.6829 7.41003C56.872 7.65897 57.1318 7.8015 57.4052 7.80627Z" fill="black"/>
<path d="M53.8102 3.85882C54.2219 3.8934 54.5827 3.59939 54.6161 3.20214C54.6494 2.8049 54.3427 2.45484 53.931 2.42026C53.5193 2.38569 53.1585 2.6797 53.1251 3.07695C53.0918 3.47419 53.3985 3.82425 53.8102 3.85882Z" fill="black"/>
<path d="M7.82056 5.80888C7.80602 5.80633 7.79263 5.7993 7.78227 5.78878C7.7719 5.77826 7.76508 5.76477 7.76275 5.75019C7.7242 5.51455 7.7461 5.24825 7.68654 5.024C7.37907 3.8528 6.59068 3.25013 5.32313 3.21684C5.30035 3.21596 5.28634 3.20458 5.28021 3.1818C5.22064 2.95054 5.36518 2.92338 5.54826 2.94003C7.0751 3.07756 8.07372 4.24963 7.99226 5.79837C7.99138 5.82377 7.97824 5.83428 7.95284 5.8299L7.82056 5.80888Z" fill="black"/>
<path d="M7.37478 6.92069C7.68838 7.16158 7.96257 7.32101 7.7462 7.72484C7.49304 8.19437 7.1041 8.45016 6.56362 8.23992C4.83968 7.56804 3.60454 6.34254 2.85908 4.56254C2.70403 4.19287 2.69702 3.96599 2.97383 3.65151C3.21648 3.37645 3.71054 3.03044 3.98822 3.44916C4.15291 3.69706 4.33686 3.93358 4.49367 4.18849C4.79413 4.67466 4.46739 4.8227 4.15729 5.1074C4.13276 5.1293 4.12488 5.15645 4.13364 5.18887C4.3719 6.10777 4.94392 6.70082 5.84882 6.96974C5.86208 6.97371 5.87614 6.97409 5.88953 6.97086C5.90293 6.96763 5.91518 6.96089 5.92503 6.95135C6.123 6.76739 6.32447 6.49671 6.60917 6.46518C6.63808 6.46255 6.66436 6.4678 6.68976 6.48094C6.93153 6.60884 7.16017 6.75513 7.37478 6.92069Z" fill="black"/>
<path d="M21.1052 3.70194C21.2033 3.45316 21.9532 3.54689 22.2878 3.58369C22.3185 3.58631 22.3334 3.60383 22.3334 3.63449L22.3307 8.85011C22.3307 8.87902 22.3158 8.89303 22.2869 8.89303H21.2629C21.2305 8.89303 21.2051 8.87989 21.1849 8.85361L21.1157 8.75901C21.0903 8.72484 21.0597 8.71959 21.0238 8.74149C20.4377 9.09363 19.8088 9.12867 19.1369 8.84573C17.0415 7.96449 17.0512 4.53501 19.0931 3.5942C19.7764 3.27972 20.4272 3.32177 21.0448 3.72122C21.0728 3.73961 21.093 3.7326 21.1052 3.70194ZM19.9699 7.7376C20.2819 7.73869 20.5817 7.57887 20.8033 7.2933C21.0249 7.00774 21.1502 6.61981 21.1516 6.21487C21.1523 6.01437 21.1226 5.81572 21.0641 5.63027C21.0057 5.44482 20.9196 5.2762 20.8108 5.13403C20.7021 4.99187 20.5728 4.87895 20.4303 4.80173C20.2879 4.7245 20.135 4.68447 19.9805 4.68393C19.6685 4.68284 19.3687 4.84266 19.1471 5.12823C18.9255 5.4138 18.8002 5.80172 18.7988 6.20666C18.7981 6.40716 18.8278 6.60581 18.8863 6.79126C18.9447 6.97671 19.0308 7.14533 19.1396 7.2875C19.2483 7.42966 19.3776 7.54258 19.5201 7.6198C19.6625 7.69703 19.8154 7.73706 19.9699 7.7376Z" fill="black"/>
<path d="M36.1014 4.74818C36.9406 2.99621 39.3285 2.94102 40.2264 4.66496C40.5146 5.21771 40.604 5.85105 40.4945 6.56322C40.491 6.586 40.4778 6.59738 40.455 6.59738L37.1088 6.60614C37.0203 6.60614 36.9879 6.64907 37.0115 6.73491C37.2157 7.45585 37.8148 8.06466 38.6146 7.83515C38.8958 7.75456 39.1376 7.48651 39.3697 7.29467C39.3839 7.28303 39.4012 7.27589 39.4195 7.27417C39.4377 7.27245 39.4561 7.27624 39.4722 7.28503L40.3307 7.75018C40.4121 7.79486 40.4253 7.85442 40.3701 7.92888C39.276 9.41981 37.2314 9.41192 36.2337 7.82639C35.6257 6.85843 35.5819 5.83265 36.1014 4.74818ZM37.1035 5.51729L39.1919 5.51029C39.1949 5.51029 39.1978 5.50909 39.1999 5.50695C39.2021 5.50482 39.2033 5.50192 39.2033 5.4989V5.49364C39.2029 5.37156 39.1754 5.25076 39.1224 5.13815C39.0694 5.02554 38.9919 4.92332 38.8943 4.83733C38.7968 4.75135 38.6811 4.68328 38.5539 4.63702C38.4267 4.59076 38.2905 4.56722 38.153 4.56773H38.1354C37.8579 4.56876 37.5921 4.66761 37.3964 4.84256C37.2008 5.0175 37.0913 5.25422 37.0921 5.50065V5.50591C37.0921 5.50893 37.0933 5.51182 37.0955 5.51396C37.0976 5.51609 37.1005 5.51729 37.1035 5.51729Z" fill="black"/>
<path d="M42.2005 6.15541C42.1962 7.04803 42.1944 7.94592 42.1953 8.84818C42.1953 8.85382 42.1941 8.8594 42.1919 8.86461C42.1897 8.86982 42.1865 8.87455 42.1824 8.87853C42.1784 8.88252 42.1736 8.88568 42.1682 8.88784C42.1629 8.89 42.1572 8.89111 42.1515 8.89111L41.053 8.88585C41.0423 8.88585 41.0321 8.88161 41.0245 8.87405C41.0169 8.86649 41.0127 8.85624 41.0127 8.84556V3.573C41.0127 3.55198 41.0232 3.54059 41.0442 3.53796C41.4822 3.48803 41.9115 3.51694 42.3328 3.62468C42.3608 3.63257 42.388 3.62994 42.4143 3.6168C43.9735 2.87221 45.4049 4.13013 45.4242 5.72442C45.4373 6.76947 45.4408 7.8154 45.4347 8.86395C45.4347 8.86775 45.4339 8.87151 45.4325 8.87501C45.431 8.87852 45.4289 8.88171 45.4262 8.88439C45.4235 8.88708 45.4203 8.88921 45.4168 8.89066C45.4133 8.89211 45.4096 8.89286 45.4058 8.89286L44.2565 8.8876C44.2223 8.88673 44.2057 8.87008 44.2065 8.8368C44.2127 7.80226 44.2127 6.77122 44.2065 5.74544C44.2022 5.00524 43.5268 4.35263 42.7822 4.74244C42.2286 5.03239 42.2023 5.58426 42.2005 6.15541Z" fill="black"/>
<path d="M30.8884 3.55605C30.8884 3.53678 30.898 3.52715 30.9173 3.52715H31.9457C31.9805 3.52715 32.014 3.54099 32.0386 3.56563C32.0633 3.59027 32.0771 3.62369 32.0771 3.65854L32.078 8.82773C32.078 8.85664 32.064 8.87153 32.035 8.87416C31.7504 8.89431 31.4648 8.89518 31.1783 8.87766C30.9804 8.8654 30.7999 8.74276 30.5783 8.84438C29.1636 9.49523 27.7366 8.32842 27.6928 6.87691C27.6595 5.78456 27.656 4.7106 27.6832 3.65504C27.6849 3.5727 27.727 3.53153 27.8102 3.53065L28.7667 3.52539C28.782 3.52528 28.7971 3.52821 28.8111 3.53402C28.8252 3.53984 28.838 3.54841 28.8488 3.55926C28.8595 3.5701 28.868 3.58299 28.8738 3.59718C28.8796 3.61136 28.8825 3.62657 28.8824 3.6419C28.8771 4.65103 28.8754 5.65667 28.878 6.65879C28.8815 8.16111 30.8717 8.13921 30.8875 6.61412C30.8971 5.59797 30.898 4.57833 30.8884 3.55605Z" fill="black"/>
<path d="M5.66553 3.62242C6.66503 3.65746 7.36932 4.47387 7.35005 5.46549C7.34984 5.4807 7.34599 5.49565 7.33883 5.50907C7.33167 5.5225 7.32141 5.53402 7.3089 5.54268C7.29638 5.55133 7.28198 5.55687 7.26689 5.55884C7.25181 5.5608 7.23647 5.55913 7.22215 5.55396L7.13456 5.52243C7.10302 5.51104 7.08725 5.48826 7.08725 5.4541C7.09076 4.41693 6.50735 4.05778 5.59282 3.82302C5.57439 3.81829 5.55719 3.80966 5.54238 3.79773C5.52758 3.7858 5.51552 3.77084 5.50704 3.75388C5.49856 3.73692 5.49385 3.71835 5.49323 3.69944C5.49262 3.68053 5.49611 3.66173 5.50347 3.64432C5.52362 3.59789 5.55778 3.5865 5.60596 3.6084C5.62436 3.61716 5.64451 3.62154 5.66553 3.62242Z" fill="black"/>
<path d="M60.1143 5.94325C60.717 3.15411 64.7071 3.46509 64.757 6.35847C64.7631 6.7255 64.566 6.93224 64.2069 6.93574C63.3186 6.94538 62.4295 6.94713 61.5404 6.94187C61.5225 6.94187 61.5049 6.94667 61.4895 6.95578C61.4742 6.96489 61.4615 6.97796 61.453 6.9936C61.4444 7.00924 61.4403 7.02686 61.4411 7.04459C61.4418 7.06232 61.4474 7.0795 61.4572 7.09429C62.1457 8.14723 63.062 7.66368 63.9905 7.34132C64.4215 7.19153 64.7868 7.72062 64.5976 8.12795C64.5205 8.29352 64.3979 8.4328 64.2288 8.54492C62.2096 9.88956 59.5659 8.4766 60.1143 5.94325ZM61.437 6.06501L63.4448 6.06851C63.448 6.06851 63.4512 6.06722 63.4535 6.06492C63.4558 6.06262 63.4571 6.0595 63.4571 6.05625V6.04837C63.4575 5.78887 63.3519 5.53981 63.1635 5.35598C62.975 5.17216 62.7192 5.06862 62.4523 5.06814H62.433C62.3008 5.0679 62.1699 5.09298 62.0477 5.14194C61.9255 5.19089 61.8144 5.26277 61.7208 5.35347C61.6272 5.44417 61.5528 5.55191 61.502 5.67054C61.4512 5.78917 61.425 5.91636 61.4248 6.04486V6.05275C61.4248 6.056 61.4261 6.05912 61.4284 6.06142C61.4307 6.06372 61.4338 6.06501 61.437 6.06501Z" fill="black"/>
<path d="M65.1629 5.51477C65.1611 4.85077 65.1121 3.74528 66.1992 4.1202C66.2277 4.12987 66.2525 4.14858 66.2701 4.17363C66.3446 4.27875 66.4401 4.35672 66.5557 4.4084C66.5695 4.41463 66.5849 4.4167 66.6 4.41437C66.615 4.41204 66.6292 4.4054 66.6407 4.39526C66.8588 4.20254 67.097 4.08253 67.3572 4.0361C67.7619 3.9634 68.263 4.30766 68.2157 4.74127C68.1544 5.3019 67.0681 5.5463 66.6731 5.82662C66.6477 5.84414 66.6337 5.86867 66.6293 5.89932C66.5259 6.6334 66.5662 7.38762 66.5285 8.12783C66.5136 8.42129 66.4593 8.62802 66.3656 8.74803C66.1308 9.04849 65.4528 9.07389 65.2873 8.64466C65.2216 8.47472 65.1883 8.32142 65.1865 8.18565C65.1743 7.29564 65.1664 6.40564 65.1629 5.51477Z" fill="black"/>
<path d="M6.51054 5.35551C6.27402 4.80627 6.36425 4.64596 5.66696 4.49091C5.65346 4.48799 5.64098 4.48154 5.6308 4.47222C5.62061 4.4629 5.61308 4.45103 5.60898 4.43785C5.60488 4.42466 5.60436 4.41062 5.60747 4.39716C5.61058 4.38371 5.6172 4.37132 5.62667 4.36126C5.71339 4.27104 5.81676 4.24301 5.93677 4.27805C6.45623 4.42784 6.69274 4.77999 6.64631 5.33361C6.64491 5.34932 6.63831 5.36412 6.62756 5.37566C6.61681 5.3872 6.60251 5.39483 6.58694 5.39734C6.57137 5.39986 6.5554 5.39711 6.54156 5.38953C6.52773 5.38195 6.51681 5.36998 6.51054 5.35551Z" fill="black"/>
<path d="M53.8496 4.34476L53.8058 4.34484C53.4541 4.34545 53.1694 4.63107 53.1701 4.98279L53.1759 8.31853C53.1765 8.67025 53.4621 8.95488 53.8138 8.95426L53.8576 8.95419C54.2093 8.95357 54.494 8.66795 54.4934 8.31623L54.4875 4.98049C54.4869 4.62877 54.2013 4.34415 53.8496 4.34476Z" fill="black"/>
<path d="M21.9311 11.3015H20.8816C20.4437 11.1929 19.6956 10.323 19.3758 9.96912C19.3452 9.93583 19.353 9.91919 19.3977 9.91919L38.5687 9.92883C38.5853 9.92883 38.5888 9.93583 38.5792 9.94897C38.5275 10.0164 36.1474 10.1706 35.882 10.1855C35.211 10.2232 34.4883 10.3221 33.7411 10.3791C31.6098 10.5438 28.9574 10.7706 25.7819 11.0588C24.4881 11.1762 23.217 11.2349 21.9311 11.3015Z" fill="black"/>
</g>
<defs>
<clipPath id="clip0_211_1618">
<rect width="67.7136" height="10.4242" fill="white" transform="translate(0.585938 0.877197)"/>
</clipPath>
</defs>
</svg>
