<svg width="70" height="38" viewBox="0 0 70 38" fill="none" xmlns="http://www.w3.org/2000/svg">
<path d="M0.047364 13.9925C-0.0115586 12.4299 0.283054 10.8673 1.00191 9.37571C1.83861 7.44611 3.09955 5.88349 4.83188 4.68786C5.96319 3.90655 7.22413 3.30281 8.59114 3.00686C10.1467 2.65172 11.6433 2.59253 13.2578 2.88848C16.4278 3.49222 18.8201 5.29159 20.5524 7.93147C21.507 9.4349 22.049 11.0567 22.2258 12.8561C22.2847 13.8741 22.2258 14.8922 22.1669 15.8629C22.108 16.4075 21.9901 16.881 21.8134 17.4256C21.1534 19.6511 19.8453 21.5097 17.9834 22.9421C16.7224 23.9601 15.3554 24.6231 13.7999 24.9782C12.2443 25.3333 10.6299 25.3333 9.0743 25.0966C6.85881 24.7414 4.94972 23.7115 3.33524 22.0305C2.43962 21.1308 1.72076 20.1128 1.11975 18.9645C0.412684 17.4137 0.047364 15.7327 0.047364 13.9925ZM4.17194 14.0517C4.17194 14.3477 4.17194 14.6555 4.23087 14.8922C4.34871 16.514 5.00864 17.9583 6.13996 19.1539C7.81336 20.7757 9.78137 21.4978 12.1147 21.2492C13.0692 21.1308 13.9649 20.8349 14.8016 20.2903C16.6517 19.0237 17.9127 17.3545 18.1484 15.0698C18.3841 12.7851 17.9127 10.7489 16.3571 9.00873C15.3437 7.87228 14.0827 7.09097 12.5979 6.84237C11.1602 6.60561 9.67531 6.6648 8.29652 7.32773C6.91773 7.99066 5.90427 8.94954 5.18541 10.2044C4.40763 11.4118 4.11302 12.6667 4.17194 14.0517Z" fill="black"/>
<path d="M65.6046 9.82555C64.8857 9.10343 64.049 8.35764 63.2713 7.87228C61.48 6.85421 59.5709 6.54642 57.5911 6.97259C55.4346 7.45795 53.8908 8.65359 52.8066 10.5713C52.3235 11.4118 52.0288 12.3115 52.0288 13.2704C52.0288 14.1701 52.0288 15.129 52.2645 16.0287C52.6181 17.2835 53.278 18.3134 54.2326 19.2131C56.3773 21.19 58.8874 21.7346 61.7039 21.0125C63.4363 20.5981 64.5676 19.3907 65.2864 17.7097H59.7831C59.241 17.7097 59.241 17.7097 59.241 17.1651V14.4069C59.241 13.9925 59.241 13.9925 59.6652 13.9925H69.4699C69.8942 13.9925 69.8942 13.9925 69.8942 14.4069C69.9531 15.8511 69.7763 17.2243 69.2342 18.5502C68.6332 20.1128 67.7376 21.486 66.5474 22.6343C65.3571 23.7707 63.9783 24.552 62.3639 24.919C60.7494 25.3333 59.076 25.4044 57.4615 25.0966C56.2123 24.919 55.0103 24.552 53.9379 24.0193C52.5002 23.2972 51.2511 22.2791 50.2965 21.0125C49.342 19.7576 48.682 18.3726 48.2696 16.81C47.8453 15.129 47.7864 13.448 48.1517 11.7078C48.6938 9.00873 50.1198 6.84237 52.2174 5.16138C53.4666 4.14331 54.9043 3.48038 56.4598 3.18443C58.4278 2.7701 60.3487 2.82929 62.3167 3.24362C64.6501 3.72898 66.5592 4.92462 68.1736 6.60561C68.4093 6.84237 68.4093 6.90156 68.1736 7.20935C67.3959 7.93147 66.6299 8.66543 65.8992 9.49409C65.6046 9.82555 65.7225 9.70717 65.6046 9.82555Z" fill="black"/>
<path d="M29.0255 9.00873C29.0255 9.30468 29.0844 9.61247 29.0844 9.96761C29.1433 10.3819 29.1433 10.8673 29.2022 11.2935C29.2612 11.5894 29.1433 11.6486 28.9076 11.7078C28.3066 11.767 27.7174 11.8854 27.1753 11.9446C26.6921 12.0037 26.2797 12.0629 25.7965 12.1221C25.7376 12.1221 25.6787 12.1813 25.5608 12.2405C26.81 12.5365 28.012 12.7851 29.2612 13.0218C28.3655 16.5614 27.5288 20.0418 26.6921 23.5813C26.2679 23.4629 25.9144 23.4037 25.5608 23.3446C24.7241 23.167 23.8285 22.9302 22.9918 22.6816C22.6972 22.6224 22.6383 22.5041 22.6972 22.1963C23.1214 20.6337 23.475 19.1302 23.8285 17.5794C24.0642 16.5614 24.3117 15.5433 24.5474 14.5134C24.6652 13.9097 24.842 13.3178 24.9716 12.7732C25.0305 12.3589 25.1484 11.9327 25.0895 11.5776C24.9716 10.1333 24.7948 8.76013 24.6063 7.31589C24.4295 5.81247 24.3117 4.38007 24.1231 2.87664C24.0642 2.46231 24.1231 2.39128 24.5356 2.39128C25.3723 2.2729 26.1501 2.21371 26.9278 2.09533C27.2224 2.09533 27.411 2.09533 27.6467 2.2729C30.0507 4.26169 32.4312 6.19128 34.8824 8.10904C35.177 8.3458 35.4834 8.5944 35.8958 8.89035C35.9548 8.77197 35.9548 8.65359 36.0726 8.5944C37.8639 6.36885 39.6551 4.09596 41.4464 1.87041C41.7999 1.45608 42.1063 1.02991 42.4598 0.615582C42.5777 0.497202 42.7544 0.378822 42.8723 0.319632C43.7679 0.201252 44.6635 0.142062 45.5592 0.0236816C45.7948 0.0236816 45.8538 0.0236816 45.9127 0.260442C46.0305 1.76387 46.1484 3.13708 46.3251 4.52212C46.443 5.90717 46.6198 7.22119 46.8083 8.60624C46.8672 9.15078 46.8672 9.15079 46.3251 9.20998C45.4295 9.32836 44.5339 9.44674 43.6972 9.63614H43.5793C42.5659 9.75452 42.6837 9.75452 42.6248 8.91403C42.5659 8.4997 42.5659 8.07353 42.507 7.52898C42.3302 7.70655 42.2123 7.82493 42.0945 7.94331C41.5524 8.54705 41.081 9.19814 40.5979 9.86107C40.48 10.0386 40.3033 10.0978 40.1147 10.0978C38.2645 10.3346 36.4144 10.6424 34.6231 10.9383C33.9043 11.0567 33.2443 11.1159 32.5373 11.2343C32.2426 11.2935 31.9952 11.2343 31.7595 11.0567C30.9228 10.3346 30.0861 9.67166 29.2494 9.02057C29.1433 8.94954 29.0844 8.94954 29.0255 9.00873Z" fill="black"/>
<path d="M43.7326 27.8548C43.1315 27.7365 42.6602 27.6181 42.177 27.4997C41.5171 27.3221 40.8571 27.1446 40.1501 26.9551C39.8554 26.896 39.8554 26.7776 39.9144 26.529C40.0911 25.7477 40.2679 24.9664 40.5154 24.1851C40.9985 22.2081 41.5288 20.2193 42.012 18.2424C42.1888 17.5794 42.3066 16.9165 42.4952 16.2654C42.613 15.8511 42.613 15.8511 43.0373 15.9103C44.1097 16.0879 45.1231 16.3365 46.2073 16.5732C46.6905 16.6916 46.7494 16.6916 46.5608 17.177C46.2662 18.3726 45.9598 19.5801 45.6652 20.7757C45.182 22.6343 44.7696 24.4928 44.2864 26.3632C44.2275 26.7184 44.1097 27.0854 43.9918 27.4405C43.9093 27.6773 43.7915 27.7956 43.7326 27.8548Z" fill="black"/>
<path d="M40.0204 15.496C38.347 16.514 36.6736 17.5321 34.9413 18.6212C33.9868 16.9994 32.9733 15.3776 31.948 13.6374C34.6938 14.2411 37.3807 14.7738 40.0204 15.3776C39.9615 15.3776 39.9615 15.4368 40.0204 15.496Z" fill="black"/>
<path d="M17.9127 36.319H17.0171V35.7745C16.5339 36.4374 15.8857 36.4966 15.6383 36.4966C14.5659 36.4966 13.6113 35.6561 13.6113 34.3302C13.6113 33.0044 14.507 32.1047 15.6383 32.1047C16.2393 32.1047 16.7107 32.3414 16.9581 32.8268V32.2231H17.8538L17.9127 36.319ZM14.5659 34.2829C14.5659 35.005 15.049 35.4785 15.7561 35.4785C16.475 35.4785 16.9464 34.934 16.9464 34.2118C16.9464 33.4897 16.4632 32.957 15.7561 32.957C15.049 32.957 14.5659 33.5016 14.5659 34.2829Z" fill="black"/>
<path d="M25.6905 35.6561C25.6905 37.1595 24.6181 37.8816 23.475 37.8816C22.5204 37.8816 21.6837 37.3371 21.448 36.3782H22.5794C22.7561 36.9227 23.3571 36.9819 23.475 36.9819C24.1349 36.9819 24.6652 36.4374 24.6652 35.8455V35.7271C24.5474 35.9047 24.182 36.39 23.475 36.39C22.3437 36.39 21.3891 35.4312 21.3891 34.2237C21.3891 32.9689 22.3437 32.0692 23.475 32.0692C23.7696 32.0692 24.3706 32.1284 24.7241 32.7913V32.2467H25.6198L25.6905 35.6561ZM22.4026 34.1645C22.4026 34.8274 22.815 35.4193 23.5928 35.4193C24.3117 35.4193 24.7831 34.8748 24.7831 34.2237C24.7831 33.5016 24.2999 32.9689 23.5928 32.9689C22.815 32.957 22.4026 33.5608 22.4026 34.1645Z" fill="black"/>
<path d="M30.2864 34.638C30.4043 35.1234 30.8285 35.4785 31.3588 35.4785C31.6534 35.4785 32.0187 35.3601 32.2544 35.0642H33.3857C32.8437 36.39 31.5945 36.39 31.3588 36.39C29.8622 36.39 29.2022 35.1944 29.2022 34.2355C29.2022 33.2766 29.9211 32.01 31.4177 32.01C32.6669 32.01 33.5036 32.9689 33.5036 34.2355V34.6499H30.2864V34.638ZM32.4901 33.7975C32.3723 33.253 31.8891 32.957 31.4177 32.957C30.8756 32.957 30.4632 33.3122 30.2864 33.7975H32.4901Z" fill="black"/>
<path d="M37.0389 32.1757H37.9346V32.5308C38.0524 32.3533 38.4177 31.9863 39.0659 31.9863C40.0204 31.9863 40.6804 32.6492 40.6804 33.8449V36.248H39.7258V34.0816C39.7258 33.1819 39.3134 32.9452 38.8891 32.9452C38.1113 32.9452 38.0524 33.7265 38.0524 34.0816V36.3072H37.0979L37.0389 32.1757Z" fill="black"/>
<path d="M48.576 34.9458C48.2814 35.7863 47.5625 36.4492 46.549 36.4492C44.9935 36.4492 44.2746 35.2536 44.2746 34.2237C44.2746 33.2648 44.9935 32.0692 46.4901 32.0692C47.5036 32.0692 48.2814 32.6729 48.576 33.5726H47.4447C47.2679 33.2175 46.9026 33.028 46.4901 33.028C45.7123 33.028 45.241 33.6318 45.241 34.2829C45.241 35.005 45.7241 35.5377 46.4901 35.5377C46.6669 35.5377 47.209 35.4785 47.4447 34.9932L48.576 34.9458Z" fill="black"/>
<path d="M55.8588 32.1757L53.4666 37.7041H52.3942L53.1719 35.9639L51.6753 32.2467H52.8066L53.7612 34.8866L54.7157 32.2467C54.7864 32.1757 55.8588 32.1757 55.8588 32.1757Z" fill="black"/>
</svg>
